solid ascii
  facet normal -9.978589e-001 -6.540313e-002 -2.059585e-016
    outer loop
      vertex   1.582067e+001 -8.696159e+000 6.350000e+000
      vertex   1.582067e+001 -8.696159e+000 0.000000e+000
      vertex   1.587500e+001 -9.525000e+000 6.350000e+000
    endloop
  endfacet
  facet normal -9.807853e-001 -1.950903e-001 -5.788512e-017
    outer loop
      vertex   1.582067e+001 -8.696159e+000 6.350000e+000
      vertex   1.565863e+001 -7.881499e+000 0.000000e+000
      vertex   1.582067e+001 -8.696159e+000 0.000000e+000
    endloop
  endfacet
  facet normal -9.807853e-001 -1.950903e-001 -4.122952e-016
    outer loop
      vertex   1.582067e+001 -8.696159e+000 6.350000e+000
      vertex   1.565863e+001 -7.881499e+000 6.350000e+000
      vertex   1.565863e+001 -7.881499e+000 0.000000e+000
    endloop
  endfacet
  facet normal -9.469301e-001 -3.214395e-001 -3.049911e-016
    outer loop
      vertex   1.565863e+001 -7.881499e+000 0.000000e+000
      vertex   1.565863e+001 -7.881499e+000 6.350000e+000
      vertex   1.539164e+001 -7.094960e+000 0.000000e+000
    endloop
  endfacet
  facet normal -9.469301e-001 -3.214395e-001 1.789176e-016
    outer loop
      vertex   1.539164e+001 -7.094960e+000 0.000000e+000
      vertex   1.565863e+001 -7.881499e+000 6.350000e+000
      vertex   1.539164e+001 -7.094960e+000 6.350000e+000
    endloop
  endfacet
  facet normal -8.968727e-001 -4.422887e-001 -1.052457e-017
    outer loop
      vertex   1.502426e+001 -6.350000e+000 0.000000e+000
      vertex   1.539164e+001 -7.094960e+000 6.350000e+000
      vertex   1.502426e+001 -6.350000e+000 6.350000e+000
    endloop
  endfacet
  facet normal -8.314696e-001 -5.555702e-001 1.578685e-016
    outer loop
      vertex   1.456279e+001 -5.659365e+000 0.000000e+000
      vertex   1.502426e+001 -6.350000e+000 6.350000e+000
      vertex   1.456279e+001 -5.659365e+000 6.350000e+000
    endloop
  endfacet
  facet normal -7.518398e-001 -6.593458e-001 -2.104914e-017
    outer loop
      vertex   1.401513e+001 -5.034872e+000 0.000000e+000
      vertex   1.456279e+001 -5.659365e+000 6.350000e+000
      vertex   1.401513e+001 -5.034872e+000 6.350000e+000
    endloop
  endfacet
  facet normal -6.593458e-001 -7.518398e-001 5.262284e-017
    outer loop
      vertex   1.339064e+001 -4.487206e+000 0.000000e+000
      vertex   1.401513e+001 -5.034872e+000 6.350000e+000
      vertex   1.339064e+001 -4.487206e+000 6.350000e+000
    endloop
  endfacet
  facet normal -5.555702e-001 -8.314696e-001 -1.157702e-016
    outer loop
      vertex   1.270000e+001 -4.025739e+000 0.000000e+000
      vertex   1.339064e+001 -4.487206e+000 6.350000e+000
      vertex   1.270000e+001 -4.025739e+000 6.350000e+000
    endloop
  endfacet
  facet normal -4.422887e-001 -8.968727e-001 -2.420651e-016
    outer loop
      vertex   1.195504e+001 -3.658365e+000 0.000000e+000
      vertex   1.270000e+001 -4.025739e+000 6.350000e+000
      vertex   1.195504e+001 -3.658365e+000 6.350000e+000
    endloop
  endfacet
  facet normal -3.214395e-001 -9.469301e-001 -4.736055e-017
    outer loop
      vertex   1.116850e+001 -3.391371e+000 0.000000e+000
      vertex   1.195504e+001 -3.658365e+000 6.350000e+000
      vertex   1.116850e+001 -3.391371e+000 6.350000e+000
    endloop
  endfacet
  facet normal -1.950903e-001 -9.807853e-001 3.157370e-017
    outer loop
      vertex   1.035384e+001 -3.229325e+000 0.000000e+000
      vertex   1.116850e+001 -3.391371e+000 6.350000e+000
      vertex   1.035384e+001 -3.229325e+000 6.350000e+000
    endloop
  endfacet
  facet normal -6.540313e-002 -9.978589e-001 -1.841799e-017
    outer loop
      vertex   9.525000e+000 -3.175000e+000 0.000000e+000
      vertex   1.035384e+001 -3.229325e+000 6.350000e+000
      vertex   9.525000e+000 -3.175000e+000 6.350000e+000
    endloop
  endfacet
  facet normal 6.540313e-002 -9.978589e-001 -2.065446e-016
    outer loop
      vertex   8.696159e+000 -3.229325e+000 0.000000e+000
      vertex   9.525000e+000 -3.175000e+000 6.350000e+000
      vertex   8.696159e+000 -3.229325e+000 6.350000e+000
    endloop
  endfacet
  facet normal 1.950903e-001 -9.807853e-001 -1.105080e-016
    outer loop
      vertex   7.881499e+000 -3.391371e+000 0.000000e+000
      vertex   8.696159e+000 -3.229325e+000 6.350000e+000
      vertex   7.881499e+000 -3.391371e+000 6.350000e+000
    endloop
  endfacet
  facet normal 3.214395e-001 -9.469301e-001 -1.262948e-016
    outer loop
      vertex   7.094960e+000 -3.658365e+000 0.000000e+000
      vertex   7.881499e+000 -3.391371e+000 6.350000e+000
      vertex   7.094960e+000 -3.658365e+000 6.350000e+000
    endloop
  endfacet
  facet normal 4.422887e-001 -8.968727e-001 -1.368194e-016
    outer loop
      vertex   6.350000e+000 -4.025739e+000 0.000000e+000
      vertex   7.094960e+000 -3.658365e+000 6.350000e+000
      vertex   6.350000e+000 -4.025739e+000 6.350000e+000
    endloop
  endfacet
  facet normal 5.555702e-001 -8.314696e-001 -3.157370e-017
    outer loop
      vertex   5.659365e+000 -4.487206e+000 0.000000e+000
      vertex   6.350000e+000 -4.025739e+000 6.350000e+000
      vertex   5.659365e+000 -4.487206e+000 6.350000e+000
    endloop
  endfacet
  facet normal 6.593458e-001 -7.518398e-001 -3.157370e-017
    outer loop
      vertex   5.034872e+000 -5.034872e+000 0.000000e+000
      vertex   5.659365e+000 -4.487206e+000 6.350000e+000
      vertex   5.034872e+000 -5.034872e+000 6.350000e+000
    endloop
  endfacet
  facet normal 7.518398e-001 -6.593458e-001 -1.578685e-016
    outer loop
      vertex   4.487206e+000 -5.659365e+000 0.000000e+000
      vertex   5.034872e+000 -5.034872e+000 6.350000e+000
      vertex   4.487206e+000 -5.659365e+000 6.350000e+000
    endloop
  endfacet
  facet normal 8.314696e-001 -5.555702e-001 -4.209827e-017
    outer loop
      vertex   4.025739e+000 -6.350000e+000 0.000000e+000
      vertex   4.487206e+000 -5.659365e+000 6.350000e+000
      vertex   4.025739e+000 -6.350000e+000 6.350000e+000
    endloop
  endfacet
  facet normal 8.968727e-001 -4.422887e-001 -1.262948e-016
    outer loop
      vertex   3.658365e+000 -7.094960e+000 0.000000e+000
      vertex   4.025739e+000 -6.350000e+000 6.350000e+000
      vertex   3.658365e+000 -7.094960e+000 6.350000e+000
    endloop
  endfacet
  facet normal 9.469301e-001 -3.214395e-001 -8.945882e-017
    outer loop
      vertex   3.391371e+000 -7.881499e+000 0.000000e+000
      vertex   3.658365e+000 -7.094960e+000 6.350000e+000
      vertex   3.391371e+000 -7.881499e+000 6.350000e+000
    endloop
  endfacet
  facet normal 9.807853e-001 -1.950903e-001 -2.631142e-017
    outer loop
      vertex   3.229325e+000 -8.696159e+000 0.000000e+000
      vertex   3.391371e+000 -7.881499e+000 6.350000e+000
      vertex   3.229325e+000 -8.696159e+000 6.350000e+000
    endloop
  endfacet
  facet normal 9.978589e-001 -6.540313e-002 0.000000e+000
    outer loop
      vertex   3.175000e+000 -9.525000e+000 0.000000e+000
      vertex   3.229325e+000 -8.696159e+000 6.350000e+000
      vertex   3.175000e+000 -9.525000e+000 6.350000e+000
    endloop
  endfacet
  facet normal 9.978589e-001 6.540313e-002 -8.419654e-017
    outer loop
      vertex   3.229325e+000 -1.035384e+001 0.000000e+000
      vertex   3.175000e+000 -9.525000e+000 6.350000e+000
      vertex   3.229325e+000 -1.035384e+001 6.350000e+000
    endloop
  endfacet
  facet normal 9.807853e-001 1.950903e-001 -2.631142e-017
    outer loop
      vertex   3.391371e+000 -1.116850e+001 0.000000e+000
      vertex   3.229325e+000 -1.035384e+001 6.350000e+000
      vertex   3.391371e+000 -1.116850e+001 6.350000e+000
    endloop
  endfacet
  facet normal 9.469301e-001 3.214395e-001 4.736055e-017
    outer loop
      vertex   3.658365e+000 -1.195504e+001 0.000000e+000
      vertex   3.391371e+000 -1.116850e+001 6.350000e+000
      vertex   3.658365e+000 -1.195504e+001 6.350000e+000
    endloop
  endfacet
  facet normal 8.968727e-001 4.422887e-001 0.000000e+000
    outer loop
      vertex   4.025739e+000 -1.270000e+001 0.000000e+000
      vertex   3.658365e+000 -1.195504e+001 6.350000e+000
      vertex   4.025739e+000 -1.270000e+001 6.350000e+000
    endloop
  endfacet
  facet normal 8.314696e-001 5.555702e-001 8.419654e-017
    outer loop
      vertex   4.487206e+000 -1.339064e+001 0.000000e+000
      vertex   4.025739e+000 -1.270000e+001 6.350000e+000
      vertex   4.487206e+000 -1.339064e+001 6.350000e+000
    endloop
  endfacet
  facet normal 7.518398e-001 6.593458e-001 5.262284e-017
    outer loop
      vertex   5.034872e+000 -1.401513e+001 0.000000e+000
      vertex   4.487206e+000 -1.339064e+001 6.350000e+000
      vertex   5.034872e+000 -1.401513e+001 6.350000e+000
    endloop
  endfacet
  facet normal 6.593458e-001 7.518398e-001 -1.578685e-016
    outer loop
      vertex   5.659365e+000 -1.456279e+001 0.000000e+000
      vertex   5.034872e+000 -1.401513e+001 6.350000e+000
      vertex   5.659365e+000 -1.456279e+001 6.350000e+000
    endloop
  endfacet
  facet normal 5.555702e-001 8.314696e-001 -8.419654e-017
    outer loop
      vertex   6.350000e+000 -1.502426e+001 0.000000e+000
      vertex   5.659365e+000 -1.456279e+001 6.350000e+000
      vertex   6.350000e+000 -1.502426e+001 6.350000e+000
    endloop
  endfacet
  facet normal 4.422887e-001 8.968727e-001 -1.157702e-016
    outer loop
      vertex   7.094960e+000 -1.539164e+001 0.000000e+000
      vertex   6.350000e+000 -1.502426e+001 6.350000e+000
      vertex   7.094960e+000 -1.539164e+001 6.350000e+000
    endloop
  endfacet
  facet normal 3.214395e-001 9.469301e-001 2.578519e-016
    outer loop
      vertex   7.881499e+000 -1.565863e+001 0.000000e+000
      vertex   7.094960e+000 -1.539164e+001 6.350000e+000
      vertex   7.881499e+000 -1.565863e+001 6.350000e+000
    endloop
  endfacet
  facet normal 1.950903e-001 9.807853e-001 3.315239e-016
    outer loop
      vertex   8.696159e+000 -1.582067e+001 0.000000e+000
      vertex   7.881499e+000 -1.565863e+001 6.350000e+000
      vertex   8.696159e+000 -1.582067e+001 6.350000e+000
    endloop
  endfacet
  facet normal 6.540313e-002 9.978589e-001 -1.841799e-017
    outer loop
      vertex   9.525000e+000 -1.587500e+001 0.000000e+000
      vertex   8.696159e+000 -1.582067e+001 6.350000e+000
      vertex   9.525000e+000 -1.587500e+001 6.350000e+000
    endloop
  endfacet
  facet normal -6.540313e-002 9.978589e-001 -2.420651e-016
    outer loop
      vertex   1.035384e+001 -1.582067e+001 0.000000e+000
      vertex   9.525000e+000 -1.587500e+001 6.350000e+000
      vertex   1.035384e+001 -1.582067e+001 6.350000e+000
    endloop
  endfacet
  facet normal -1.950903e-001 9.807853e-001 -1.683931e-016
    outer loop
      vertex   1.116850e+001 -1.565863e+001 0.000000e+000
      vertex   1.035384e+001 -1.582067e+001 6.350000e+000
      vertex   1.116850e+001 -1.565863e+001 6.350000e+000
    endloop
  endfacet
  facet normal -3.214395e-001 9.469301e-001 5.262284e-018
    outer loop
      vertex   1.195504e+001 -1.539164e+001 0.000000e+000
      vertex   1.116850e+001 -1.565863e+001 6.350000e+000
      vertex   1.195504e+001 -1.539164e+001 6.350000e+000
    endloop
  endfacet
  facet normal -4.422887e-001 8.968727e-001 -1.368194e-016
    outer loop
      vertex   1.270000e+001 -1.502426e+001 0.000000e+000
      vertex   1.195504e+001 -1.539164e+001 6.350000e+000
      vertex   1.270000e+001 -1.502426e+001 6.350000e+000
    endloop
  endfacet
  facet normal -5.555702e-001 8.314696e-001 -1.473439e-016
    outer loop
      vertex   1.339064e+001 -1.456279e+001 0.000000e+000
      vertex   1.270000e+001 -1.502426e+001 6.350000e+000
      vertex   1.339064e+001 -1.456279e+001 6.350000e+000
    endloop
  endfacet
  facet normal -6.593458e-001 7.518398e-001 1.894422e-016
    outer loop
      vertex   1.401513e+001 -1.401513e+001 0.000000e+000
      vertex   1.339064e+001 -1.456279e+001 6.350000e+000
      vertex   1.401513e+001 -1.401513e+001 6.350000e+000
    endloop
  endfacet
  facet normal -7.518398e-001 6.593458e-001 -1.894422e-016
    outer loop
      vertex   1.456279e+001 -1.339064e+001 0.000000e+000
      vertex   1.401513e+001 -1.401513e+001 6.350000e+000
      vertex   1.456279e+001 -1.339064e+001 6.350000e+000
    endloop
  endfacet
  facet normal -8.314696e-001 5.555702e-001 -8.419654e-017
    outer loop
      vertex   1.502426e+001 -1.270000e+001 0.000000e+000
      vertex   1.456279e+001 -1.339064e+001 6.350000e+000
      vertex   1.502426e+001 -1.270000e+001 6.350000e+000
    endloop
  endfacet
  facet normal -8.968727e-001 4.422887e-001 -2.420651e-016
    outer loop
      vertex   1.539164e+001 -1.195504e+001 0.000000e+000
      vertex   1.502426e+001 -1.270000e+001 6.350000e+000
      vertex   1.539164e+001 -1.195504e+001 6.350000e+000
    endloop
  endfacet
  facet normal -9.469301e-001 3.214395e-001 2.631142e-016
    outer loop
      vertex   1.565863e+001 -1.116850e+001 0.000000e+000
      vertex   1.539164e+001 -1.195504e+001 6.350000e+000
      vertex   1.565863e+001 -1.116850e+001 6.350000e+000
    endloop
  endfacet
  facet normal -9.807853e-001 1.950903e-001 5.788512e-017
    outer loop
      vertex   1.582067e+001 -1.035384e+001 0.000000e+000
      vertex   1.565863e+001 -1.116850e+001 6.350000e+000
      vertex   1.582067e+001 -1.035384e+001 6.350000e+000
    endloop
  endfacet
  facet normal -9.978589e-001 6.540313e-002 0.000000e+000
    outer loop
      vertex   1.587500e+001 -9.525000e+000 0.000000e+000
      vertex   1.582067e+001 -1.035384e+001 6.350000e+000
      vertex   1.587500e+001 -9.525000e+000 6.350000e+000
    endloop
  endfacet
  facet normal -9.978589e-001 -6.540313e-002 0.000000e+000
    outer loop
      vertex   1.582067e+001 -8.696159e+000 0.000000e+000
      vertex   1.587500e+001 -9.525000e+000 0.000000e+000
      vertex   1.587500e+001 -9.525000e+000 6.350000e+000
    endloop
  endfacet
  facet normal -8.968727e-001 -4.422887e-001 2.474528e-016
    outer loop
      vertex   1.539164e+001 -7.094960e+000 0.000000e+000
      vertex   1.539164e+001 -7.094960e+000 6.350000e+000
      vertex   1.502426e+001 -6.350000e+000 0.000000e+000
    endloop
  endfacet
  facet normal -8.314696e-001 -5.555702e-001 7.823547e-017
    outer loop
      vertex   1.502426e+001 -6.350000e+000 0.000000e+000
      vertex   1.502426e+001 -6.350000e+000 6.350000e+000
      vertex   1.456279e+001 -5.659365e+000 0.000000e+000
    endloop
  endfacet
  facet normal -7.518398e-001 -6.593458e-001 1.844462e-016
    outer loop
      vertex   1.456279e+001 -5.659365e+000 0.000000e+000
      vertex   1.456279e+001 -5.659365e+000 6.350000e+000
      vertex   1.401513e+001 -5.034872e+000 0.000000e+000
    endloop
  endfacet
  facet normal -6.593458e-001 -7.518398e-001 2.587438e-017
    outer loop
      vertex   1.401513e+001 -5.034872e+000 0.000000e+000
      vertex   1.401513e+001 -5.034872e+000 6.350000e+000
      vertex   1.339064e+001 -4.487206e+000 0.000000e+000
    endloop
  endfacet
  facet normal -5.555702e-001 -8.314696e-001 1.543609e-016
    outer loop
      vertex   1.339064e+001 -4.487206e+000 0.000000e+000
      vertex   1.339064e+001 -4.487206e+000 6.350000e+000
      vertex   1.270000e+001 -4.025739e+000 0.000000e+000
    endloop
  endfacet
  facet normal -4.422887e-001 -8.968727e-001 5.159279e-018
    outer loop
      vertex   1.270000e+001 -4.025739e+000 0.000000e+000
      vertex   1.270000e+001 -4.025739e+000 6.350000e+000
      vertex   1.195504e+001 -3.658365e+000 0.000000e+000
    endloop
  endfacet
  facet normal -3.214395e-001 -9.469301e-001 -1.373119e-016
    outer loop
      vertex   1.195504e+001 -3.658365e+000 0.000000e+000
      vertex   1.195504e+001 -3.658365e+000 6.350000e+000
      vertex   1.116850e+001 -3.391371e+000 0.000000e+000
    endloop
  endfacet
  facet normal -1.950903e-001 -9.807853e-001 2.803343e-017
    outer loop
      vertex   1.116850e+001 -3.391371e+000 0.000000e+000
      vertex   1.116850e+001 -3.391371e+000 6.350000e+000
      vertex   1.035384e+001 -3.229325e+000 0.000000e+000
    endloop
  endfacet
  facet normal -6.540313e-002 -9.978589e-001 1.029792e-016
    outer loop
      vertex   1.035384e+001 -3.229325e+000 0.000000e+000
      vertex   1.035384e+001 -3.229325e+000 6.350000e+000
      vertex   9.525000e+000 -3.175000e+000 0.000000e+000
    endloop
  endfacet
  facet normal 6.540313e-002 -9.978589e-001 1.829595e-017
    outer loop
      vertex   9.525000e+000 -3.175000e+000 0.000000e+000
      vertex   9.525000e+000 -3.175000e+000 6.350000e+000
      vertex   8.696159e+000 -3.229325e+000 0.000000e+000
    endloop
  endfacet
  facet normal 1.950903e-001 -9.807853e-001 -5.606686e-017
    outer loop
      vertex   8.696159e+000 -3.229325e+000 0.000000e+000
      vertex   8.696159e+000 -3.229325e+000 6.350000e+000
      vertex   7.881499e+000 -3.391371e+000 0.000000e+000
    endloop
  endfacet
  facet normal 3.214395e-001 -9.469301e-001 4.864215e-018
    outer loop
      vertex   7.881499e+000 -3.391371e+000 0.000000e+000
      vertex   7.881499e+000 -3.391371e+000 6.350000e+000
      vertex   7.094960e+000 -3.658365e+000 0.000000e+000
    endloop
  endfacet
  facet normal 4.422887e-001 -8.968727e-001 -5.159279e-018
    outer loop
      vertex   7.094960e+000 -3.658365e+000 0.000000e+000
      vertex   7.094960e+000 -3.658365e+000 6.350000e+000
      vertex   6.350000e+000 -4.025739e+000 0.000000e+000
    endloop
  endfacet
  facet normal 5.555702e-001 -8.314696e-001 -3.806270e-017
    outer loop
      vertex   6.350000e+000 -4.025739e+000 0.000000e+000
      vertex   6.350000e+000 -4.025739e+000 6.350000e+000
      vertex   5.659365e+000 -4.487206e+000 0.000000e+000
    endloop
  endfacet
  facet normal 6.593458e-001 -7.518398e-001 5.341153e-017
    outer loop
      vertex   5.659365e+000 -4.487206e+000 0.000000e+000
      vertex   5.659365e+000 -4.487206e+000 6.350000e+000
      vertex   5.034872e+000 -5.034872e+000 0.000000e+000
    endloop
  endfacet
  facet normal 7.518398e-001 -6.593458e-001 3.881158e-017
    outer loop
      vertex   5.034872e+000 -5.034872e+000 0.000000e+000
      vertex   5.034872e+000 -5.034872e+000 6.350000e+000
      vertex   4.487206e+000 -5.659365e+000 0.000000e+000
    endloop
  endfacet
  facet normal 8.314696e-001 -5.555702e-001 -7.823547e-017
    outer loop
      vertex   4.487206e+000 -5.659365e+000 0.000000e+000
      vertex   4.487206e+000 -5.659365e+000 6.350000e+000
      vertex   4.025739e+000 -6.350000e+000 0.000000e+000
    endloop
  endfacet
  facet normal 8.968727e-001 -4.422887e-001 6.702247e-017
    outer loop
      vertex   4.025739e+000 -6.350000e+000 0.000000e+000
      vertex   4.025739e+000 -6.350000e+000 6.350000e+000
      vertex   3.658365e+000 -7.094960e+000 0.000000e+000
    endloop
  endfacet
  facet normal 9.469301e-001 -3.214395e-001 -4.739204e-017
    outer loop
      vertex   3.658365e+000 -7.094960e+000 0.000000e+000
      vertex   3.658365e+000 -7.094960e+000 6.350000e+000
      vertex   3.391371e+000 -7.881499e+000 0.000000e+000
    endloop
  endfacet
  facet normal 9.807853e-001 -1.950903e-001 7.460238e-019
    outer loop
      vertex   3.391371e+000 -7.881499e+000 0.000000e+000
      vertex   3.391371e+000 -7.881499e+000 6.350000e+000
      vertex   3.229325e+000 -8.696159e+000 0.000000e+000
    endloop
  endfacet
  facet normal 9.978589e-001 -6.540313e-002 8.468329e-017
    outer loop
      vertex   3.229325e+000 -8.696159e+000 0.000000e+000
      vertex   3.229325e+000 -8.696159e+000 6.350000e+000
      vertex   3.175000e+000 -9.525000e+000 0.000000e+000
    endloop
  endfacet
  facet normal 9.978589e-001 6.540313e-002 -0.000000e+000
    outer loop
      vertex   3.175000e+000 -9.525000e+000 0.000000e+000
      vertex   3.175000e+000 -9.525000e+000 6.350000e+000
      vertex   3.229325e+000 -1.035384e+001 0.000000e+000
    endloop
  endfacet
  facet normal 9.807853e-001 1.950903e-001 2.654138e-017
    outer loop
      vertex   3.229325e+000 -1.035384e+001 0.000000e+000
      vertex   3.229325e+000 -1.035384e+001 6.350000e+000
      vertex   3.391371e+000 -1.116850e+001 0.000000e+000
    endloop
  endfacet
  facet normal 9.469301e-001 3.214395e-001 4.739204e-017
    outer loop
      vertex   3.391371e+000 -1.116850e+001 0.000000e+000
      vertex   3.391371e+000 -1.116850e+001 6.350000e+000
      vertex   3.658365e+000 -1.195504e+001 0.000000e+000
    endloop
  endfacet
  facet normal 8.968727e-001 4.422887e-001 1.220066e-016
    outer loop
      vertex   3.658365e+000 -1.195504e+001 0.000000e+000
      vertex   3.658365e+000 -1.195504e+001 6.350000e+000
      vertex   4.025739e+000 -1.270000e+001 0.000000e+000
    endloop
  endfacet
  facet normal 8.314696e-001 5.555702e-001 1.173532e-016
    outer loop
      vertex   4.025739e+000 -1.270000e+001 0.000000e+000
      vertex   4.025739e+000 -1.270000e+001 6.350000e+000
      vertex   4.487206e+000 -1.339064e+001 0.000000e+000
    endloop
  endfacet
  facet normal 7.518398e-001 6.593458e-001 1.585718e-016
    outer loop
      vertex   4.487206e+000 -1.339064e+001 0.000000e+000
      vertex   4.487206e+000 -1.339064e+001 6.350000e+000
      vertex   5.034872e+000 -1.401513e+001 0.000000e+000
    endloop
  endfacet
  facet normal 6.593458e-001 7.518398e-001 1.439719e-016
    outer loop
      vertex   5.034872e+000 -1.401513e+001 0.000000e+000
      vertex   5.034872e+000 -1.401513e+001 6.350000e+000
      vertex   5.659365e+000 -1.456279e+001 0.000000e+000
    endloop
  endfacet
  facet normal 5.555702e-001 8.314696e-001 -7.823547e-017
    outer loop
      vertex   5.659365e+000 -1.456279e+001 0.000000e+000
      vertex   5.659365e+000 -1.456279e+001 6.350000e+000
      vertex   6.350000e+000 -1.502426e+001 0.000000e+000
    endloop
  endfacet
  facet normal 4.422887e-001 8.968727e-001 3.439519e-018
    outer loop
      vertex   6.350000e+000 -1.502426e+001 0.000000e+000
      vertex   6.350000e+000 -1.502426e+001 6.350000e+000
      vertex   7.094960e+000 -1.539164e+001 0.000000e+000
    endloop
  endfacet
  facet normal 3.214395e-001 9.469301e-001 -4.864215e-018
    outer loop
      vertex   7.094960e+000 -1.539164e+001 0.000000e+000
      vertex   7.094960e+000 -1.539164e+001 6.350000e+000
      vertex   7.881499e+000 -1.565863e+001 0.000000e+000
    endloop
  endfacet
  facet normal 1.950903e-001 9.807853e-001 3.850077e-016
    outer loop
      vertex   7.881499e+000 -1.565863e+001 0.000000e+000
      vertex   7.881499e+000 -1.565863e+001 6.350000e+000
      vertex   8.696159e+000 -1.582067e+001 0.000000e+000
    endloop
  endfacet
  facet normal 6.540313e-002 9.978589e-001 4.851008e-016
    outer loop
      vertex   8.696159e+000 -1.582067e+001 0.000000e+000
      vertex   8.696159e+000 -1.582067e+001 6.350000e+000
      vertex   9.525000e+000 -1.587500e+001 0.000000e+000
    endloop
  endfacet
  facet normal -6.540313e-002 9.978589e-001 1.829595e-017
    outer loop
      vertex   9.525000e+000 -1.587500e+001 0.000000e+000
      vertex   9.525000e+000 -1.587500e+001 6.350000e+000
      vertex   1.035384e+001 -1.582067e+001 0.000000e+000
    endloop
  endfacet
  facet normal -1.950903e-001 9.807853e-001 -1.652165e-016
    outer loop
      vertex   1.035384e+001 -1.582067e+001 0.000000e+000
      vertex   1.035384e+001 -1.582067e+001 6.350000e+000
      vertex   1.116850e+001 -1.565863e+001 0.000000e+000
    endloop
  endfacet
  facet normal -3.214395e-001 9.469301e-001 -8.505566e-017
    outer loop
      vertex   1.116850e+001 -1.565863e+001 0.000000e+000
      vertex   1.116850e+001 -1.565863e+001 6.350000e+000
      vertex   1.195504e+001 -1.539164e+001 0.000000e+000
    endloop
  endfacet
  facet normal -4.422887e-001 8.968727e-001 1.202869e-016
    outer loop
      vertex   1.195504e+001 -1.539164e+001 0.000000e+000
      vertex   1.195504e+001 -1.539164e+001 6.350000e+000
      vertex   1.270000e+001 -1.502426e+001 0.000000e+000
    endloop
  endfacet
  facet normal -5.555702e-001 8.314696e-001 1.055037e-018
    outer loop
      vertex   1.270000e+001 -1.502426e+001 0.000000e+000
      vertex   1.270000e+001 -1.502426e+001 6.350000e+000
      vertex   1.339064e+001 -1.456279e+001 0.000000e+000
    endloop
  endfacet
  facet normal -6.593458e-001 7.518398e-001 -5.174877e-017
    outer loop
      vertex   1.339064e+001 -1.456279e+001 0.000000e+000
      vertex   1.339064e+001 -1.456279e+001 6.350000e+000
      vertex   1.401513e+001 -1.401513e+001 0.000000e+000
    endloop
  endfacet
  facet normal -7.518398e-001 6.593458e-001 2.103206e-016
    outer loop
      vertex   1.401513e+001 -1.401513e+001 0.000000e+000
      vertex   1.401513e+001 -1.401513e+001 6.350000e+000
      vertex   1.456279e+001 -1.339064e+001 0.000000e+000
    endloop
  endfacet
  facet normal -8.314696e-001 5.555702e-001 -1.554159e-016
    outer loop
      vertex   1.456279e+001 -1.339064e+001 0.000000e+000
      vertex   1.456279e+001 -1.339064e+001 6.350000e+000
      vertex   1.502426e+001 -1.270000e+001 0.000000e+000
    endloop
  endfacet
  facet normal -8.968727e-001 4.422887e-001 3.439519e-018
    outer loop
      vertex   1.502426e+001 -1.270000e+001 0.000000e+000
      vertex   1.502426e+001 -1.270000e+001 6.350000e+000
      vertex   1.539164e+001 -1.195504e+001 0.000000e+000
    endloop
  endfacet
  facet normal -9.469301e-001 3.214395e-001 -1.798397e-016
    outer loop
      vertex   1.539164e+001 -1.195504e+001 0.000000e+000
      vertex   1.539164e+001 -1.195504e+001 6.350000e+000
      vertex   1.565863e+001 -1.116850e+001 0.000000e+000
    endloop
  endfacet
  facet normal -9.807853e-001 1.950903e-001 3.850077e-016
    outer loop
      vertex   1.565863e+001 -1.116850e+001 0.000000e+000
      vertex   1.565863e+001 -1.116850e+001 6.350000e+000
      vertex   1.582067e+001 -1.035384e+001 0.000000e+000
    endloop
  endfacet
  facet normal -9.978589e-001 6.540313e-002 2.059585e-016
    outer loop
      vertex   1.582067e+001 -1.035384e+001 0.000000e+000
      vertex   1.582067e+001 -1.035384e+001 6.350000e+000
      vertex   1.587500e+001 -9.525000e+000 0.000000e+000
    endloop
  endfacet
  facet normal -0.000000e+000 1.000000e+000 0.000000e+000
    outer loop
      vertex   0.000000e+000 0.000000e+000 0.000000e+000
      vertex   0.000000e+000 0.000000e+000 6.350000e+000
      vertex   9.525000e+000 0.000000e+000 0.000000e+000
    endloop
  endfacet
  facet normal 0.000000e+000 1.000000e+000 -0.000000e+000
    outer loop
      vertex   9.525000e+000 0.000000e+000 0.000000e+000
      vertex   0.000000e+000 0.000000e+000 6.350000e+000
      vertex   9.525000e+000 0.000000e+000 6.350000e+000
    endloop
  endfacet
  facet normal 0.000000e+000 1.000000e+000 -0.000000e+000
    outer loop
      vertex   1.905000e+001 0.000000e+000 0.000000e+000
      vertex   9.525000e+000 0.000000e+000 6.350000e+000
      vertex   1.905000e+001 0.000000e+000 6.350000e+000
    endloop
  endfacet
  facet normal 0.000000e+000 1.000000e+000 -0.000000e+000
    outer loop
      vertex   1.905000e+001 0.000000e+000 0.000000e+000
      vertex   9.525000e+000 0.000000e+000 0.000000e+000
      vertex   9.525000e+000 0.000000e+000 6.350000e+000
    endloop
  endfacet
  facet normal 1.000000e+000 0.000000e+000 -0.000000e+000
    outer loop
      vertex   1.905000e+001 0.000000e+000 0.000000e+000
      vertex   1.905000e+001 0.000000e+000 6.350000e+000
      vertex   1.905000e+001 -9.525000e+000 0.000000e+000
    endloop
  endfacet
  facet normal 1.000000e+000 0.000000e+000 -0.000000e+000
    outer loop
      vertex   1.905000e+001 -9.525000e+000 0.000000e+000
      vertex   1.905000e+001 0.000000e+000 6.350000e+000
      vertex   1.905000e+001 -9.525000e+000 6.350000e+000
    endloop
  endfacet
  facet normal 1.000000e+000 0.000000e+000 -0.000000e+000
    outer loop
      vertex   1.905000e+001 -1.905000e+001 0.000000e+000
      vertex   1.905000e+001 -9.525000e+000 6.350000e+000
      vertex   1.905000e+001 -1.905000e+001 6.350000e+000
    endloop
  endfacet
  facet normal 1.000000e+000 0.000000e+000 0.000000e+000
    outer loop
      vertex   1.905000e+001 -1.905000e+001 0.000000e+000
      vertex   1.905000e+001 -9.525000e+000 0.000000e+000
      vertex   1.905000e+001 -9.525000e+000 6.350000e+000
    endloop
  endfacet
  facet normal -0.000000e+000 -1.000000e+000 0.000000e+000
    outer loop
      vertex   1.905000e+001 -1.905000e+001 0.000000e+000
      vertex   1.905000e+001 -1.905000e+001 6.350000e+000
      vertex   9.525000e+000 -1.905000e+001 0.000000e+000
    endloop
  endfacet
  facet normal 0.000000e+000 -1.000000e+000 0.000000e+000
    outer loop
      vertex   9.525000e+000 -1.905000e+001 0.000000e+000
      vertex   1.905000e+001 -1.905000e+001 6.350000e+000
      vertex   9.525000e+000 -1.905000e+001 6.350000e+000
    endloop
  endfacet
  facet normal 0.000000e+000 -1.000000e+000 0.000000e+000
    outer loop
      vertex   0.000000e+000 -1.905000e+001 0.000000e+000
      vertex   9.525000e+000 -1.905000e+001 6.350000e+000
      vertex   0.000000e+000 -1.905000e+001 6.350000e+000
    endloop
  endfacet
  facet normal 0.000000e+000 -1.000000e+000 0.000000e+000
    outer loop
      vertex   0.000000e+000 -1.905000e+001 0.000000e+000
      vertex   9.525000e+000 -1.905000e+001 0.000000e+000
      vertex   9.525000e+000 -1.905000e+001 6.350000e+000
    endloop
  endfacet
  facet normal -1.000000e+000 0.000000e+000 0.000000e+000
    outer loop
      vertex   0.000000e+000 -1.905000e+001 0.000000e+000
      vertex   0.000000e+000 -1.905000e+001 6.350000e+000
      vertex   0.000000e+000 -9.525000e+000 0.000000e+000
    endloop
  endfacet
  facet normal -1.000000e+000 0.000000e+000 0.000000e+000
    outer loop
      vertex   0.000000e+000 -9.525000e+000 0.000000e+000
      vertex   0.000000e+000 -1.905000e+001 6.350000e+000
      vertex   0.000000e+000 -9.525000e+000 6.350000e+000
    endloop
  endfacet
  facet normal -1.000000e+000 0.000000e+000 0.000000e+000
    outer loop
      vertex   0.000000e+000 0.000000e+000 0.000000e+000
      vertex   0.000000e+000 -9.525000e+000 6.350000e+000
      vertex   0.000000e+000 0.000000e+000 6.350000e+000
    endloop
  endfacet
  facet normal -1.000000e+000 0.000000e+000 0.000000e+000
    outer loop
      vertex   0.000000e+000 0.000000e+000 0.000000e+000
      vertex   0.000000e+000 -9.525000e+000 0.000000e+000
      vertex   0.000000e+000 -9.525000e+000 6.350000e+000
    endloop
  endfacet
  facet normal 0.000000e+000 0.000000e+000 -1.000000e+000
    outer loop
      vertex   1.582067e+001 -1.035384e+001 0.000000e+000
      vertex   1.587500e+001 -9.525000e+000 0.000000e+000
      vertex   1.905000e+001 -9.525000e+000 0.000000e+000
    endloop
  endfacet
  facet normal 0.000000e+000 -0.000000e+000 -1.000000e+000
    outer loop
      vertex   1.565863e+001 -1.116850e+001 0.000000e+000
      vertex   1.905000e+001 -9.525000e+000 0.000000e+000
      vertex   1.539164e+001 -1.195504e+001 0.000000e+000
    endloop
  endfacet
  facet normal 0.000000e+000 0.000000e+000 -1.000000e+000
    outer loop
      vertex   1.565863e+001 -1.116850e+001 0.000000e+000
      vertex   1.582067e+001 -1.035384e+001 0.000000e+000
      vertex   1.905000e+001 -9.525000e+000 0.000000e+000
    endloop
  endfacet
  facet normal 0.000000e+000 0.000000e+000 -1.000000e+000
    outer loop
      vertex   1.587500e+001 -9.525000e+000 0.000000e+000
      vertex   1.582067e+001 -8.696159e+000 0.000000e+000
      vertex   1.905000e+001 -9.525000e+000 0.000000e+000
    endloop
  endfacet
  facet normal 0.000000e+000 0.000000e+000 -1.000000e+000
    outer loop
      vertex   1.905000e+001 -9.525000e+000 0.000000e+000
      vertex   1.582067e+001 -8.696159e+000 0.000000e+000
      vertex   1.565863e+001 -7.881499e+000 0.000000e+000
    endloop
  endfacet
  facet normal -0.000000e+000 -0.000000e+000 -1.000000e+000
    outer loop
      vertex   1.539164e+001 -7.094960e+000 0.000000e+000
      vertex   1.905000e+001 -9.525000e+000 0.000000e+000
      vertex   1.565863e+001 -7.881499e+000 0.000000e+000
    endloop
  endfacet
  facet normal 0.000000e+000 0.000000e+000 -1.000000e+000
    outer loop
      vertex   1.539164e+001 -7.094960e+000 0.000000e+000
      vertex   1.905000e+001 0.000000e+000 0.000000e+000
      vertex   1.905000e+001 -9.525000e+000 0.000000e+000
    endloop
  endfacet
  facet normal 0.000000e+000 0.000000e+000 -1.000000e+000
    outer loop
      vertex   1.539164e+001 -7.094960e+000 0.000000e+000
      vertex   1.502426e+001 -6.350000e+000 0.000000e+000
      vertex   1.905000e+001 0.000000e+000 0.000000e+000
    endloop
  endfacet
  facet normal -0.000000e+000 0.000000e+000 -1.000000e+000
    outer loop
      vertex   1.905000e+001 0.000000e+000 0.000000e+000
      vertex   1.502426e+001 -6.350000e+000 0.000000e+000
      vertex   1.456279e+001 -5.659365e+000 0.000000e+000
    endloop
  endfacet
  facet normal 0.000000e+000 -0.000000e+000 -1.000000e+000
    outer loop
      vertex   1.401513e+001 -5.034872e+000 0.000000e+000
      vertex   1.905000e+001 0.000000e+000 0.000000e+000
      vertex   1.456279e+001 -5.659365e+000 0.000000e+000
    endloop
  endfacet
  facet normal 0.000000e+000 0.000000e+000 -1.000000e+000
    outer loop
      vertex   1.401513e+001 -5.034872e+000 0.000000e+000
      vertex   1.339064e+001 -4.487206e+000 0.000000e+000
      vertex   1.905000e+001 0.000000e+000 0.000000e+000
    endloop
  endfacet
  facet normal -0.000000e+000 0.000000e+000 -1.000000e+000
    outer loop
      vertex   1.905000e+001 0.000000e+000 0.000000e+000
      vertex   1.339064e+001 -4.487206e+000 0.000000e+000
      vertex   1.270000e+001 -4.025739e+000 0.000000e+000
    endloop
  endfacet
  facet normal 0.000000e+000 -0.000000e+000 -1.000000e+000
    outer loop
      vertex   1.195504e+001 -3.658365e+000 0.000000e+000
      vertex   1.905000e+001 0.000000e+000 0.000000e+000
      vertex   1.270000e+001 -4.025739e+000 0.000000e+000
    endloop
  endfacet
  facet normal 0.000000e+000 0.000000e+000 -1.000000e+000
    outer loop
      vertex   1.195504e+001 -3.658365e+000 0.000000e+000
      vertex   9.525000e+000 0.000000e+000 0.000000e+000
      vertex   1.905000e+001 0.000000e+000 0.000000e+000
    endloop
  endfacet
  facet normal 0.000000e+000 0.000000e+000 -1.000000e+000
    outer loop
      vertex   1.195504e+001 -3.658365e+000 0.000000e+000
      vertex   1.116850e+001 -3.391371e+000 0.000000e+000
      vertex   9.525000e+000 0.000000e+000 0.000000e+000
    endloop
  endfacet
  facet normal -0.000000e+000 -0.000000e+000 -1.000000e+000
    outer loop
      vertex   9.525000e+000 0.000000e+000 0.000000e+000
      vertex   1.116850e+001 -3.391371e+000 0.000000e+000
      vertex   1.035384e+001 -3.229325e+000 0.000000e+000
    endloop
  endfacet
  facet normal 0.000000e+000 0.000000e+000 -1.000000e+000
    outer loop
      vertex   9.525000e+000 -3.175000e+000 0.000000e+000
      vertex   9.525000e+000 0.000000e+000 0.000000e+000
      vertex   1.035384e+001 -3.229325e+000 0.000000e+000
    endloop
  endfacet
  facet normal -0.000000e+000 0.000000e+000 -1.000000e+000
    outer loop
      vertex   9.525000e+000 -3.175000e+000 0.000000e+000
      vertex   8.696159e+000 -3.229325e+000 0.000000e+000
      vertex   9.525000e+000 0.000000e+000 0.000000e+000
    endloop
  endfacet
  facet normal 0.000000e+000 0.000000e+000 -1.000000e+000
    outer loop
      vertex   9.525000e+000 0.000000e+000 0.000000e+000
      vertex   8.696159e+000 -3.229325e+000 0.000000e+000
      vertex   7.881499e+000 -3.391371e+000 0.000000e+000
    endloop
  endfacet
  facet normal 0.000000e+000 -0.000000e+000 -1.000000e+000
    outer loop
      vertex   7.094960e+000 -3.658365e+000 0.000000e+000
      vertex   9.525000e+000 0.000000e+000 0.000000e+000
      vertex   7.881499e+000 -3.391371e+000 0.000000e+000
    endloop
  endfacet
  facet normal 0.000000e+000 0.000000e+000 -1.000000e+000
    outer loop
      vertex   7.094960e+000 -3.658365e+000 0.000000e+000
      vertex   0.000000e+000 0.000000e+000 0.000000e+000
      vertex   9.525000e+000 0.000000e+000 0.000000e+000
    endloop
  endfacet
  facet normal -0.000000e+000 0.000000e+000 -1.000000e+000
    outer loop
      vertex   7.094960e+000 -3.658365e+000 0.000000e+000
      vertex   6.350000e+000 -4.025739e+000 0.000000e+000
      vertex   0.000000e+000 0.000000e+000 0.000000e+000
    endloop
  endfacet
  facet normal 0.000000e+000 -0.000000e+000 -1.000000e+000
    outer loop
      vertex   0.000000e+000 0.000000e+000 0.000000e+000
      vertex   6.350000e+000 -4.025739e+000 0.000000e+000
      vertex   5.659365e+000 -4.487206e+000 0.000000e+000
    endloop
  endfacet
  facet normal 0.000000e+000 0.000000e+000 -1.000000e+000
    outer loop
      vertex   5.034872e+000 -5.034872e+000 0.000000e+000
      vertex   0.000000e+000 0.000000e+000 0.000000e+000
      vertex   5.659365e+000 -4.487206e+000 0.000000e+000
    endloop
  endfacet
  facet normal -0.000000e+000 0.000000e+000 -1.000000e+000
    outer loop
      vertex   5.034872e+000 -5.034872e+000 0.000000e+000
      vertex   4.487206e+000 -5.659365e+000 0.000000e+000
      vertex   0.000000e+000 0.000000e+000 0.000000e+000
    endloop
  endfacet
  facet normal 0.000000e+000 -0.000000e+000 -1.000000e+000
    outer loop
      vertex   0.000000e+000 0.000000e+000 0.000000e+000
      vertex   4.487206e+000 -5.659365e+000 0.000000e+000
      vertex   4.025739e+000 -6.350000e+000 0.000000e+000
    endloop
  endfacet
  facet normal 0.000000e+000 0.000000e+000 -1.000000e+000
    outer loop
      vertex   3.658365e+000 -7.094960e+000 0.000000e+000
      vertex   0.000000e+000 0.000000e+000 0.000000e+000
      vertex   4.025739e+000 -6.350000e+000 0.000000e+000
    endloop
  endfacet
  facet normal -0.000000e+000 0.000000e+000 -1.000000e+000
    outer loop
      vertex   3.658365e+000 -7.094960e+000 0.000000e+000
      vertex   0.000000e+000 -9.525000e+000 0.000000e+000
      vertex   0.000000e+000 0.000000e+000 0.000000e+000
    endloop
  endfacet
  facet normal 0.000000e+000 0.000000e+000 -1.000000e+000
    outer loop
      vertex   3.658365e+000 -7.094960e+000 0.000000e+000
      vertex   3.391371e+000 -7.881499e+000 0.000000e+000
      vertex   0.000000e+000 -9.525000e+000 0.000000e+000
    endloop
  endfacet
  facet normal 0.000000e+000 -0.000000e+000 -1.000000e+000
    outer loop
      vertex   0.000000e+000 -9.525000e+000 0.000000e+000
      vertex   3.391371e+000 -7.881499e+000 0.000000e+000
      vertex   3.229325e+000 -8.696159e+000 0.000000e+000
    endloop
  endfacet
  facet normal -0.000000e+000 0.000000e+000 -1.000000e+000
    outer loop
      vertex   3.175000e+000 -9.525000e+000 0.000000e+000
      vertex   0.000000e+000 -9.525000e+000 0.000000e+000
      vertex   3.229325e+000 -8.696159e+000 0.000000e+000
    endloop
  endfacet
  facet normal -0.000000e+000 -0.000000e+000 -1.000000e+000
    outer loop
      vertex   3.175000e+000 -9.525000e+000 0.000000e+000
      vertex   3.229325e+000 -1.035384e+001 0.000000e+000
      vertex   0.000000e+000 -9.525000e+000 0.000000e+000
    endloop
  endfacet
  facet normal 0.000000e+000 0.000000e+000 -1.000000e+000
    outer loop
      vertex   0.000000e+000 -9.525000e+000 0.000000e+000
      vertex   3.229325e+000 -1.035384e+001 0.000000e+000
      vertex   3.391371e+000 -1.116850e+001 0.000000e+000
    endloop
  endfacet
  facet normal 0.000000e+000 0.000000e+000 -1.000000e+000
    outer loop
      vertex   3.658365e+000 -1.195504e+001 0.000000e+000
      vertex   0.000000e+000 -9.525000e+000 0.000000e+000
      vertex   3.391371e+000 -1.116850e+001 0.000000e+000
    endloop
  endfacet
  facet normal -0.000000e+000 0.000000e+000 -1.000000e+000
    outer loop
      vertex   3.658365e+000 -1.195504e+001 0.000000e+000
      vertex   0.000000e+000 -1.905000e+001 0.000000e+000
      vertex   0.000000e+000 -9.525000e+000 0.000000e+000
    endloop
  endfacet
  facet normal 0.000000e+000 -0.000000e+000 -1.000000e+000
    outer loop
      vertex   3.658365e+000 -1.195504e+001 0.000000e+000
      vertex   4.025739e+000 -1.270000e+001 0.000000e+000
      vertex   0.000000e+000 -1.905000e+001 0.000000e+000
    endloop
  endfacet
  facet normal 0.000000e+000 0.000000e+000 -1.000000e+000
    outer loop
      vertex   0.000000e+000 -1.905000e+001 0.000000e+000
      vertex   4.025739e+000 -1.270000e+001 0.000000e+000
      vertex   4.487206e+000 -1.339064e+001 0.000000e+000
    endloop
  endfacet
  facet normal -0.000000e+000 0.000000e+000 -1.000000e+000
    outer loop
      vertex   5.034872e+000 -1.401513e+001 0.000000e+000
      vertex   0.000000e+000 -1.905000e+001 0.000000e+000
      vertex   4.487206e+000 -1.339064e+001 0.000000e+000
    endloop
  endfacet
  facet normal 0.000000e+000 -0.000000e+000 -1.000000e+000
    outer loop
      vertex   5.034872e+000 -1.401513e+001 0.000000e+000
      vertex   5.659365e+000 -1.456279e+001 0.000000e+000
      vertex   0.000000e+000 -1.905000e+001 0.000000e+000
    endloop
  endfacet
  facet normal 0.000000e+000 0.000000e+000 -1.000000e+000
    outer loop
      vertex   0.000000e+000 -1.905000e+001 0.000000e+000
      vertex   5.659365e+000 -1.456279e+001 0.000000e+000
      vertex   6.350000e+000 -1.502426e+001 0.000000e+000
    endloop
  endfacet
  facet normal -0.000000e+000 0.000000e+000 -1.000000e+000
    outer loop
      vertex   7.094960e+000 -1.539164e+001 0.000000e+000
      vertex   0.000000e+000 -1.905000e+001 0.000000e+000
      vertex   6.350000e+000 -1.502426e+001 0.000000e+000
    endloop
  endfacet
  facet normal -0.000000e+000 -0.000000e+000 -1.000000e+000
    outer loop
      vertex   7.094960e+000 -1.539164e+001 0.000000e+000
      vertex   9.525000e+000 -1.905000e+001 0.000000e+000
      vertex   0.000000e+000 -1.905000e+001 0.000000e+000
    endloop
  endfacet
  facet normal 0.000000e+000 0.000000e+000 -1.000000e+000
    outer loop
      vertex   7.094960e+000 -1.539164e+001 0.000000e+000
      vertex   7.881499e+000 -1.565863e+001 0.000000e+000
      vertex   9.525000e+000 -1.905000e+001 0.000000e+000
    endloop
  endfacet
  facet normal 0.000000e+000 0.000000e+000 -1.000000e+000
    outer loop
      vertex   9.525000e+000 -1.905000e+001 0.000000e+000
      vertex   7.881499e+000 -1.565863e+001 0.000000e+000
      vertex   8.696159e+000 -1.582067e+001 0.000000e+000
    endloop
  endfacet
  facet normal -0.000000e+000 -0.000000e+000 -1.000000e+000
    outer loop
      vertex   9.525000e+000 -1.587500e+001 0.000000e+000
      vertex   9.525000e+000 -1.905000e+001 0.000000e+000
      vertex   8.696159e+000 -1.582067e+001 0.000000e+000
    endloop
  endfacet
  facet normal 0.000000e+000 -0.000000e+000 -1.000000e+000
    outer loop
      vertex   9.525000e+000 -1.587500e+001 0.000000e+000
      vertex   1.035384e+001 -1.582067e+001 0.000000e+000
      vertex   9.525000e+000 -1.905000e+001 0.000000e+000
    endloop
  endfacet
  facet normal 0.000000e+000 0.000000e+000 -1.000000e+000
    outer loop
      vertex   9.525000e+000 -1.905000e+001 0.000000e+000
      vertex   1.035384e+001 -1.582067e+001 0.000000e+000
      vertex   1.116850e+001 -1.565863e+001 0.000000e+000
    endloop
  endfacet
  facet normal -0.000000e+000 0.000000e+000 -1.000000e+000
    outer loop
      vertex   1.195504e+001 -1.539164e+001 0.000000e+000
      vertex   9.525000e+000 -1.905000e+001 0.000000e+000
      vertex   1.116850e+001 -1.565863e+001 0.000000e+000
    endloop
  endfacet
  facet normal -0.000000e+000 -0.000000e+000 -1.000000e+000
    outer loop
      vertex   1.195504e+001 -1.539164e+001 0.000000e+000
      vertex   1.905000e+001 -1.905000e+001 0.000000e+000
      vertex   9.525000e+000 -1.905000e+001 0.000000e+000
    endloop
  endfacet
  facet normal 0.000000e+000 0.000000e+000 -1.000000e+000
    outer loop
      vertex   1.195504e+001 -1.539164e+001 0.000000e+000
      vertex   1.270000e+001 -1.502426e+001 0.000000e+000
      vertex   1.905000e+001 -1.905000e+001 0.000000e+000
    endloop
  endfacet
  facet normal 0.000000e+000 0.000000e+000 -1.000000e+000
    outer loop
      vertex   1.905000e+001 -1.905000e+001 0.000000e+000
      vertex   1.270000e+001 -1.502426e+001 0.000000e+000
      vertex   1.339064e+001 -1.456279e+001 0.000000e+000
    endloop
  endfacet
  facet normal -0.000000e+000 -0.000000e+000 -1.000000e+000
    outer loop
      vertex   1.401513e+001 -1.401513e+001 0.000000e+000
      vertex   1.905000e+001 -1.905000e+001 0.000000e+000
      vertex   1.339064e+001 -1.456279e+001 0.000000e+000
    endloop
  endfacet
  facet normal 0.000000e+000 0.000000e+000 -1.000000e+000
    outer loop
      vertex   1.401513e+001 -1.401513e+001 0.000000e+000
      vertex   1.456279e+001 -1.339064e+001 0.000000e+000
      vertex   1.905000e+001 -1.905000e+001 0.000000e+000
    endloop
  endfacet
  facet normal 0.000000e+000 0.000000e+000 -1.000000e+000
    outer loop
      vertex   1.905000e+001 -1.905000e+001 0.000000e+000
      vertex   1.456279e+001 -1.339064e+001 0.000000e+000
      vertex   1.502426e+001 -1.270000e+001 0.000000e+000
    endloop
  endfacet
  facet normal -0.000000e+000 -0.000000e+000 -1.000000e+000
    outer loop
      vertex   1.539164e+001 -1.195504e+001 0.000000e+000
      vertex   1.905000e+001 -1.905000e+001 0.000000e+000
      vertex   1.502426e+001 -1.270000e+001 0.000000e+000
    endloop
  endfacet
  facet normal 0.000000e+000 0.000000e+000 -1.000000e+000
    outer loop
      vertex   1.539164e+001 -1.195504e+001 0.000000e+000
      vertex   1.905000e+001 -9.525000e+000 0.000000e+000
      vertex   1.905000e+001 -1.905000e+001 0.000000e+000
    endloop
  endfacet
  facet normal 0.000000e+000 0.000000e+000 1.000000e+000
    outer loop
      vertex   1.582067e+001 -8.696159e+000 6.350000e+000
      vertex   1.587500e+001 -9.525000e+000 6.350000e+000
      vertex   1.905000e+001 -9.525000e+000 6.350000e+000
    endloop
  endfacet
  facet normal -0.000000e+000 -0.000000e+000 1.000000e+000
    outer loop
      vertex   1.565863e+001 -7.881499e+000 6.350000e+000
      vertex   1.905000e+001 -9.525000e+000 6.350000e+000
      vertex   1.539164e+001 -7.094960e+000 6.350000e+000
    endloop
  endfacet
  facet normal 0.000000e+000 0.000000e+000 1.000000e+000
    outer loop
      vertex   1.565863e+001 -7.881499e+000 6.350000e+000
      vertex   1.582067e+001 -8.696159e+000 6.350000e+000
      vertex   1.905000e+001 -9.525000e+000 6.350000e+000
    endloop
  endfacet
  facet normal -0.000000e+000 0.000000e+000 1.000000e+000
    outer loop
      vertex   1.587500e+001 -9.525000e+000 6.350000e+000
      vertex   1.582067e+001 -1.035384e+001 6.350000e+000
      vertex   1.905000e+001 -9.525000e+000 6.350000e+000
    endloop
  endfacet
  facet normal 0.000000e+000 0.000000e+000 1.000000e+000
    outer loop
      vertex   1.905000e+001 -9.525000e+000 6.350000e+000
      vertex   1.582067e+001 -1.035384e+001 6.350000e+000
      vertex   1.565863e+001 -1.116850e+001 6.350000e+000
    endloop
  endfacet
  facet normal 0.000000e+000 -0.000000e+000 1.000000e+000
    outer loop
      vertex   1.539164e+001 -1.195504e+001 6.350000e+000
      vertex   1.905000e+001 -9.525000e+000 6.350000e+000
      vertex   1.565863e+001 -1.116850e+001 6.350000e+000
    endloop
  endfacet
  facet normal -0.000000e+000 0.000000e+000 1.000000e+000
    outer loop
      vertex   1.539164e+001 -1.195504e+001 6.350000e+000
      vertex   1.905000e+001 -1.905000e+001 6.350000e+000
      vertex   1.905000e+001 -9.525000e+000 6.350000e+000
    endloop
  endfacet
  facet normal 0.000000e+000 0.000000e+000 1.000000e+000
    outer loop
      vertex   1.539164e+001 -1.195504e+001 6.350000e+000
      vertex   1.502426e+001 -1.270000e+001 6.350000e+000
      vertex   1.905000e+001 -1.905000e+001 6.350000e+000
    endloop
  endfacet
  facet normal 0.000000e+000 0.000000e+000 1.000000e+000
    outer loop
      vertex   1.905000e+001 -1.905000e+001 6.350000e+000
      vertex   1.502426e+001 -1.270000e+001 6.350000e+000
      vertex   1.456279e+001 -1.339064e+001 6.350000e+000
    endloop
  endfacet
  facet normal -0.000000e+000 -0.000000e+000 1.000000e+000
    outer loop
      vertex   1.401513e+001 -1.401513e+001 6.350000e+000
      vertex   1.905000e+001 -1.905000e+001 6.350000e+000
      vertex   1.456279e+001 -1.339064e+001 6.350000e+000
    endloop
  endfacet
  facet normal 0.000000e+000 0.000000e+000 1.000000e+000
    outer loop
      vertex   1.401513e+001 -1.401513e+001 6.350000e+000
      vertex   1.339064e+001 -1.456279e+001 6.350000e+000
      vertex   1.905000e+001 -1.905000e+001 6.350000e+000
    endloop
  endfacet
  facet normal 0.000000e+000 0.000000e+000 1.000000e+000
    outer loop
      vertex   1.905000e+001 -1.905000e+001 6.350000e+000
      vertex   1.339064e+001 -1.456279e+001 6.350000e+000
      vertex   1.270000e+001 -1.502426e+001 6.350000e+000
    endloop
  endfacet
  facet normal -0.000000e+000 -0.000000e+000 1.000000e+000
    outer loop
      vertex   1.195504e+001 -1.539164e+001 6.350000e+000
      vertex   1.905000e+001 -1.905000e+001 6.350000e+000
      vertex   1.270000e+001 -1.502426e+001 6.350000e+000
    endloop
  endfacet
  facet normal -0.000000e+000 0.000000e+000 1.000000e+000
    outer loop
      vertex   1.195504e+001 -1.539164e+001 6.350000e+000
      vertex   9.525000e+000 -1.905000e+001 6.350000e+000
      vertex   1.905000e+001 -1.905000e+001 6.350000e+000
    endloop
  endfacet
  facet normal 0.000000e+000 0.000000e+000 1.000000e+000
    outer loop
      vertex   1.195504e+001 -1.539164e+001 6.350000e+000
      vertex   1.116850e+001 -1.565863e+001 6.350000e+000
      vertex   9.525000e+000 -1.905000e+001 6.350000e+000
    endloop
  endfacet
  facet normal 0.000000e+000 -0.000000e+000 1.000000e+000
    outer loop
      vertex   9.525000e+000 -1.905000e+001 6.350000e+000
      vertex   1.116850e+001 -1.565863e+001 6.350000e+000
      vertex   1.035384e+001 -1.582067e+001 6.350000e+000
    endloop
  endfacet
  facet normal -0.000000e+000 0.000000e+000 1.000000e+000
    outer loop
      vertex   9.525000e+000 -1.587500e+001 6.350000e+000
      vertex   9.525000e+000 -1.905000e+001 6.350000e+000
      vertex   1.035384e+001 -1.582067e+001 6.350000e+000
    endloop
  endfacet
  facet normal 0.000000e+000 0.000000e+000 1.000000e+000
    outer loop
      vertex   9.525000e+000 -1.587500e+001 6.350000e+000
      vertex   8.696159e+000 -1.582067e+001 6.350000e+000
      vertex   9.525000e+000 -1.905000e+001 6.350000e+000
    endloop
  endfacet
  facet normal 0.000000e+000 0.000000e+000 1.000000e+000
    outer loop
      vertex   9.525000e+000 -1.905000e+001 6.350000e+000
      vertex   8.696159e+000 -1.582067e+001 6.350000e+000
      vertex   7.881499e+000 -1.565863e+001 6.350000e+000
    endloop
  endfacet
  facet normal -0.000000e+000 -0.000000e+000 1.000000e+000
    outer loop
      vertex   7.094960e+000 -1.539164e+001 6.350000e+000
      vertex   9.525000e+000 -1.905000e+001 6.350000e+000
      vertex   7.881499e+000 -1.565863e+001 6.350000e+000
    endloop
  endfacet
  facet normal -0.000000e+000 0.000000e+000 1.000000e+000
    outer loop
      vertex   7.094960e+000 -1.539164e+001 6.350000e+000
      vertex   0.000000e+000 -1.905000e+001 6.350000e+000
      vertex   9.525000e+000 -1.905000e+001 6.350000e+000
    endloop
  endfacet
  facet normal 0.000000e+000 0.000000e+000 1.000000e+000
    outer loop
      vertex   7.094960e+000 -1.539164e+001 6.350000e+000
      vertex   6.350000e+000 -1.502426e+001 6.350000e+000
      vertex   0.000000e+000 -1.905000e+001 6.350000e+000
    endloop
  endfacet
  facet normal 0.000000e+000 -0.000000e+000 1.000000e+000
    outer loop
      vertex   0.000000e+000 -1.905000e+001 6.350000e+000
      vertex   6.350000e+000 -1.502426e+001 6.350000e+000
      vertex   5.659365e+000 -1.456279e+001 6.350000e+000
    endloop
  endfacet
  facet normal -0.000000e+000 0.000000e+000 1.000000e+000
    outer loop
      vertex   5.034872e+000 -1.401513e+001 6.350000e+000
      vertex   0.000000e+000 -1.905000e+001 6.350000e+000
      vertex   5.659365e+000 -1.456279e+001 6.350000e+000
    endloop
  endfacet
  facet normal 0.000000e+000 0.000000e+000 1.000000e+000
    outer loop
      vertex   5.034872e+000 -1.401513e+001 6.350000e+000
      vertex   4.487206e+000 -1.339064e+001 6.350000e+000
      vertex   0.000000e+000 -1.905000e+001 6.350000e+000
    endloop
  endfacet
  facet normal 0.000000e+000 -0.000000e+000 1.000000e+000
    outer loop
      vertex   0.000000e+000 -1.905000e+001 6.350000e+000
      vertex   4.487206e+000 -1.339064e+001 6.350000e+000
      vertex   4.025739e+000 -1.270000e+001 6.350000e+000
    endloop
  endfacet
  facet normal -0.000000e+000 0.000000e+000 1.000000e+000
    outer loop
      vertex   3.658365e+000 -1.195504e+001 6.350000e+000
      vertex   0.000000e+000 -1.905000e+001 6.350000e+000
      vertex   4.025739e+000 -1.270000e+001 6.350000e+000
    endloop
  endfacet
  facet normal 0.000000e+000 0.000000e+000 1.000000e+000
    outer loop
      vertex   3.658365e+000 -1.195504e+001 6.350000e+000
      vertex   0.000000e+000 -9.525000e+000 6.350000e+000
      vertex   0.000000e+000 -1.905000e+001 6.350000e+000
    endloop
  endfacet
  facet normal 0.000000e+000 0.000000e+000 1.000000e+000
    outer loop
      vertex   3.658365e+000 -1.195504e+001 6.350000e+000
      vertex   3.391371e+000 -1.116850e+001 6.350000e+000
      vertex   0.000000e+000 -9.525000e+000 6.350000e+000
    endloop
  endfacet
  facet normal -0.000000e+000 -0.000000e+000 1.000000e+000
    outer loop
      vertex   0.000000e+000 -9.525000e+000 6.350000e+000
      vertex   3.391371e+000 -1.116850e+001 6.350000e+000
      vertex   3.229325e+000 -1.035384e+001 6.350000e+000
    endloop
  endfacet
  facet normal 0.000000e+000 0.000000e+000 1.000000e+000
    outer loop
      vertex   3.175000e+000 -9.525000e+000 6.350000e+000
      vertex   0.000000e+000 -9.525000e+000 6.350000e+000
      vertex   3.229325e+000 -1.035384e+001 6.350000e+000
    endloop
  endfacet
  facet normal 0.000000e+000 -0.000000e+000 1.000000e+000
    outer loop
      vertex   3.175000e+000 -9.525000e+000 6.350000e+000
      vertex   3.229325e+000 -8.696159e+000 6.350000e+000
      vertex   0.000000e+000 -9.525000e+000 6.350000e+000
    endloop
  endfacet
  facet normal 0.000000e+000 0.000000e+000 1.000000e+000
    outer loop
      vertex   0.000000e+000 -9.525000e+000 6.350000e+000
      vertex   3.229325e+000 -8.696159e+000 6.350000e+000
      vertex   3.391371e+000 -7.881499e+000 6.350000e+000
    endloop
  endfacet
  facet normal -0.000000e+000 0.000000e+000 1.000000e+000
    outer loop
      vertex   3.658365e+000 -7.094960e+000 6.350000e+000
      vertex   0.000000e+000 -9.525000e+000 6.350000e+000
      vertex   3.391371e+000 -7.881499e+000 6.350000e+000
    endloop
  endfacet
  facet normal 0.000000e+000 0.000000e+000 1.000000e+000
    outer loop
      vertex   3.658365e+000 -7.094960e+000 6.350000e+000
      vertex   0.000000e+000 0.000000e+000 6.350000e+000
      vertex   0.000000e+000 -9.525000e+000 6.350000e+000
    endloop
  endfacet
  facet normal 0.000000e+000 -0.000000e+000 1.000000e+000
    outer loop
      vertex   3.658365e+000 -7.094960e+000 6.350000e+000
      vertex   4.025739e+000 -6.350000e+000 6.350000e+000
      vertex   0.000000e+000 0.000000e+000 6.350000e+000
    endloop
  endfacet
  facet normal -0.000000e+000 0.000000e+000 1.000000e+000
    outer loop
      vertex   0.000000e+000 0.000000e+000 6.350000e+000
      vertex   4.025739e+000 -6.350000e+000 6.350000e+000
      vertex   4.487206e+000 -5.659365e+000 6.350000e+000
    endloop
  endfacet
  facet normal 0.000000e+000 0.000000e+000 1.000000e+000
    outer loop
      vertex   5.034872e+000 -5.034872e+000 6.350000e+000
      vertex   0.000000e+000 0.000000e+000 6.350000e+000
      vertex   4.487206e+000 -5.659365e+000 6.350000e+000
    endloop
  endfacet
  facet normal 0.000000e+000 -0.000000e+000 1.000000e+000
    outer loop
      vertex   5.034872e+000 -5.034872e+000 6.350000e+000
      vertex   5.659365e+000 -4.487206e+000 6.350000e+000
      vertex   0.000000e+000 0.000000e+000 6.350000e+000
    endloop
  endfacet
  facet normal -0.000000e+000 0.000000e+000 1.000000e+000
    outer loop
      vertex   0.000000e+000 0.000000e+000 6.350000e+000
      vertex   5.659365e+000 -4.487206e+000 6.350000e+000
      vertex   6.350000e+000 -4.025739e+000 6.350000e+000
    endloop
  endfacet
  facet normal 0.000000e+000 0.000000e+000 1.000000e+000
    outer loop
      vertex   7.094960e+000 -3.658365e+000 6.350000e+000
      vertex   0.000000e+000 0.000000e+000 6.350000e+000
      vertex   6.350000e+000 -4.025739e+000 6.350000e+000
    endloop
  endfacet
  facet normal 0.000000e+000 -0.000000e+000 1.000000e+000
    outer loop
      vertex   7.094960e+000 -3.658365e+000 6.350000e+000
      vertex   9.525000e+000 0.000000e+000 6.350000e+000
      vertex   0.000000e+000 0.000000e+000 6.350000e+000
    endloop
  endfacet
  facet normal 0.000000e+000 0.000000e+000 1.000000e+000
    outer loop
      vertex   7.094960e+000 -3.658365e+000 6.350000e+000
      vertex   7.881499e+000 -3.391371e+000 6.350000e+000
      vertex   9.525000e+000 0.000000e+000 6.350000e+000
    endloop
  endfacet
  facet normal -0.000000e+000 0.000000e+000 1.000000e+000
    outer loop
      vertex   9.525000e+000 0.000000e+000 6.350000e+000
      vertex   7.881499e+000 -3.391371e+000 6.350000e+000
      vertex   8.696159e+000 -3.229325e+000 6.350000e+000
    endloop
  endfacet
  facet normal 0.000000e+000 -0.000000e+000 1.000000e+000
    outer loop
      vertex   9.525000e+000 -3.175000e+000 6.350000e+000
      vertex   9.525000e+000 0.000000e+000 6.350000e+000
      vertex   8.696159e+000 -3.229325e+000 6.350000e+000
    endloop
  endfacet
  facet normal -0.000000e+000 -0.000000e+000 1.000000e+000
    outer loop
      vertex   9.525000e+000 -3.175000e+000 6.350000e+000
      vertex   1.035384e+001 -3.229325e+000 6.350000e+000
      vertex   9.525000e+000 0.000000e+000 6.350000e+000
    endloop
  endfacet
  facet normal 0.000000e+000 0.000000e+000 1.000000e+000
    outer loop
      vertex   9.525000e+000 0.000000e+000 6.350000e+000
      vertex   1.035384e+001 -3.229325e+000 6.350000e+000
      vertex   1.116850e+001 -3.391371e+000 6.350000e+000
    endloop
  endfacet
  facet normal 0.000000e+000 0.000000e+000 1.000000e+000
    outer loop
      vertex   1.195504e+001 -3.658365e+000 6.350000e+000
      vertex   9.525000e+000 0.000000e+000 6.350000e+000
      vertex   1.116850e+001 -3.391371e+000 6.350000e+000
    endloop
  endfacet
  facet normal 0.000000e+000 -0.000000e+000 1.000000e+000
    outer loop
      vertex   1.195504e+001 -3.658365e+000 6.350000e+000
      vertex   1.905000e+001 0.000000e+000 6.350000e+000
      vertex   9.525000e+000 0.000000e+000 6.350000e+000
    endloop
  endfacet
  facet normal -0.000000e+000 0.000000e+000 1.000000e+000
    outer loop
      vertex   1.195504e+001 -3.658365e+000 6.350000e+000
      vertex   1.270000e+001 -4.025739e+000 6.350000e+000
      vertex   1.905000e+001 0.000000e+000 6.350000e+000
    endloop
  endfacet
  facet normal 0.000000e+000 0.000000e+000 1.000000e+000
    outer loop
      vertex   1.905000e+001 0.000000e+000 6.350000e+000
      vertex   1.270000e+001 -4.025739e+000 6.350000e+000
      vertex   1.339064e+001 -4.487206e+000 6.350000e+000
    endloop
  endfacet
  facet normal 0.000000e+000 -0.000000e+000 1.000000e+000
    outer loop
      vertex   1.401513e+001 -5.034872e+000 6.350000e+000
      vertex   1.905000e+001 0.000000e+000 6.350000e+000
      vertex   1.339064e+001 -4.487206e+000 6.350000e+000
    endloop
  endfacet
  facet normal -0.000000e+000 0.000000e+000 1.000000e+000
    outer loop
      vertex   1.401513e+001 -5.034872e+000 6.350000e+000
      vertex   1.456279e+001 -5.659365e+000 6.350000e+000
      vertex   1.905000e+001 0.000000e+000 6.350000e+000
    endloop
  endfacet
  facet normal 0.000000e+000 0.000000e+000 1.000000e+000
    outer loop
      vertex   1.905000e+001 0.000000e+000 6.350000e+000
      vertex   1.456279e+001 -5.659365e+000 6.350000e+000
      vertex   1.502426e+001 -6.350000e+000 6.350000e+000
    endloop
  endfacet
  facet normal 0.000000e+000 -0.000000e+000 1.000000e+000
    outer loop
      vertex   1.539164e+001 -7.094960e+000 6.350000e+000
      vertex   1.905000e+001 0.000000e+000 6.350000e+000
      vertex   1.502426e+001 -6.350000e+000 6.350000e+000
    endloop
  endfacet
  facet normal -0.000000e+000 0.000000e+000 1.000000e+000
    outer loop
      vertex   1.539164e+001 -7.094960e+000 6.350000e+000
      vertex   1.905000e+001 -9.525000e+000 6.350000e+000
      vertex   1.905000e+001 0.000000e+000 6.350000e+000
    endloop
  endfacet
endsolid
