solid ascii
  facet normal 0.000000e+000 -1.000000e+000 0.000000e+000
    outer loop
      vertex   1.000000e+001 -3.000000e+000 5.000000e+000
      vertex   1.000000e+001 -3.000000e+000 0.000000e+000
      vertex   1.700000e+001 -3.000000e+000 5.000000e+000
    endloop
  endfacet
  facet normal 0.000000e+000 -1.000000e+000 -0.000000e+000
    outer loop
      vertex   1.700000e+001 -3.000000e+000 5.000000e+000
      vertex   1.000000e+001 -3.000000e+000 0.000000e+000
      vertex   1.700000e+001 -3.000000e+000 0.000000e+000
    endloop
  endfacet
  facet normal -1.000000e+000 0.000000e+000 0.000000e+000
    outer loop
      vertex   1.700000e+001 -1.700000e+001 0.000000e+000
      vertex   1.700000e+001 -1.700000e+001 5.000000e+000
      vertex   1.700000e+001 -1.000000e+001 0.000000e+000
    endloop
  endfacet
  facet normal -1.000000e+000 0.000000e+000 0.000000e+000
    outer loop
      vertex   1.700000e+001 -1.000000e+001 0.000000e+000
      vertex   1.700000e+001 -1.700000e+001 5.000000e+000
      vertex   1.700000e+001 -1.000000e+001 5.000000e+000
    endloop
  endfacet
  facet normal -1.000000e+000 0.000000e+000 0.000000e+000
    outer loop
      vertex   1.700000e+001 -3.000000e+000 0.000000e+000
      vertex   1.700000e+001 -1.000000e+001 5.000000e+000
      vertex   1.700000e+001 -3.000000e+000 5.000000e+000
    endloop
  endfacet
  facet normal -1.000000e+000 0.000000e+000 0.000000e+000
    outer loop
      vertex   1.700000e+001 -3.000000e+000 0.000000e+000
      vertex   1.700000e+001 -1.000000e+001 0.000000e+000
      vertex   1.700000e+001 -1.000000e+001 5.000000e+000
    endloop
  endfacet
  facet normal 0.000000e+000 1.000000e+000 0.000000e+000
    outer loop
      vertex   1.700000e+001 -1.700000e+001 5.000000e+000
      vertex   1.700000e+001 -1.700000e+001 0.000000e+000
      vertex   1.000000e+001 -1.700000e+001 5.000000e+000
    endloop
  endfacet
  facet normal 0.000000e+000 1.000000e+000 0.000000e+000
    outer loop
      vertex   1.000000e+001 -1.700000e+001 5.000000e+000
      vertex   1.700000e+001 -1.700000e+001 0.000000e+000
      vertex   1.000000e+001 -1.700000e+001 0.000000e+000
    endloop
  endfacet
  facet normal 6.279052e-002 -9.980267e-001 0.000000e+000
    outer loop
      vertex   1.000000e+001 -3.000000e+000 0.000000e+000
      vertex   1.000000e+001 -3.000000e+000 5.000000e+000
      vertex   9.122667e+000 -3.055197e+000 0.000000e+000
    endloop
  endfacet
  facet normal 6.279052e-002 -9.980267e-001 1.326103e-016
    outer loop
      vertex   9.122667e+000 -3.055197e+000 0.000000e+000
      vertex   1.000000e+001 -3.000000e+000 5.000000e+000
      vertex   9.122667e+000 -3.055197e+000 5.000000e+000
    endloop
  endfacet
  facet normal 1.873813e-001 -9.822873e-001 4.134684e-017
    outer loop
      vertex   8.259171e+000 -3.219918e+000 5.000000e+000
      vertex   9.122667e+000 -3.055197e+000 0.000000e+000
      vertex   9.122667e+000 -3.055197e+000 5.000000e+000
    endloop
  endfacet
  facet normal 1.873813e-001 -9.822873e-001 0.000000e+000
    outer loop
      vertex   8.259171e+000 -3.219918e+000 5.000000e+000
      vertex   8.259171e+000 -3.219918e+000 0.000000e+000
      vertex   9.122667e+000 -3.055197e+000 0.000000e+000
    endloop
  endfacet
  facet normal 3.090170e-001 -9.510565e-001 0.000000e+000
    outer loop
      vertex   8.259171e+000 -3.219918e+000 5.000000e+000
      vertex   7.423128e+000 -3.491565e+000 5.000000e+000
      vertex   8.259171e+000 -3.219918e+000 0.000000e+000
    endloop
  endfacet
  facet normal 3.090170e-001 -9.510565e-001 4.264239e-018
    outer loop
      vertex   8.259171e+000 -3.219918e+000 0.000000e+000
      vertex   7.423128e+000 -3.491565e+000 5.000000e+000
      vertex   7.423128e+000 -3.491565e+000 0.000000e+000
    endloop
  endfacet
  facet normal 4.257793e-001 -9.048271e-001 -6.617121e-017
    outer loop
      vertex   7.423128e+000 -3.491565e+000 0.000000e+000
      vertex   7.423128e+000 -3.491565e+000 5.000000e+000
      vertex   6.627724e+000 -3.865853e+000 5.000000e+000
    endloop
  endfacet
  facet normal 5.358268e-001 -8.443279e-001 0.000000e+000
    outer loop
      vertex   6.627724e+000 -3.865853e+000 0.000000e+000
      vertex   6.627724e+000 -3.865853e+000 5.000000e+000
      vertex   5.885503e+000 -4.336881e+000 5.000000e+000
    endloop
  endfacet
  facet normal 6.374240e-001 -7.705132e-001 0.000000e+000
    outer loop
      vertex   5.885503e+000 -4.336881e+000 0.000000e+000
      vertex   5.885503e+000 -4.336881e+000 5.000000e+000
      vertex   5.208170e+000 -4.897220e+000 5.000000e+000
    endloop
  endfacet
  facet normal 7.289686e-001 -6.845471e-001 -2.367254e-017
    outer loop
      vertex   5.208170e+000 -4.897220e+000 0.000000e+000
      vertex   5.208170e+000 -4.897220e+000 5.000000e+000
      vertex   4.606407e+000 -5.538032e+000 5.000000e+000
    endloop
  endfacet
  facet normal 8.090170e-001 -5.877853e-001 2.581433e-017
    outer loop
      vertex   4.606407e+000 -5.538032e+000 0.000000e+000
      vertex   4.606407e+000 -5.538032e+000 5.000000e+000
      vertex   4.089705e+000 -6.249212e+000 5.000000e+000
    endloop
  endfacet
  facet normal 8.763067e-001 -4.817537e-001 3.097990e-017
    outer loop
      vertex   4.089705e+000 -6.249212e+000 0.000000e+000
      vertex   4.089705e+000 -6.249212e+000 5.000000e+000
      vertex   3.666211e+000 -7.019545e+000 5.000000e+000
    endloop
  endfacet
  facet normal 9.297765e-001 -3.681246e-001 0.000000e+000
    outer loop
      vertex   3.666211e+000 -7.019545e+000 0.000000e+000
      vertex   3.666211e+000 -7.019545e+000 5.000000e+000
      vertex   3.342604e+000 -7.836881e+000 5.000000e+000
    endloop
  endfacet
  facet normal 9.685832e-001 -2.486899e-001 -8.370254e-017
    outer loop
      vertex   3.342604e+000 -7.836881e+000 0.000000e+000
      vertex   3.342604e+000 -7.836881e+000 5.000000e+000
      vertex   3.123989e+000 -8.688331e+000 5.000000e+000
    endloop
  endfacet
  facet normal 9.921147e-001 -1.253332e-001 -8.718035e-017
    outer loop
      vertex   3.123989e+000 -8.688331e+000 0.000000e+000
      vertex   3.123989e+000 -8.688331e+000 5.000000e+000
      vertex   3.013813e+000 -9.560466e+000 5.000000e+000
    endloop
  endfacet
  facet normal 1.000000e+000 0.000000e+000 -0.000000e+000
    outer loop
      vertex   3.013813e+000 -9.560466e+000 0.000000e+000
      vertex   3.013813e+000 -9.560466e+000 5.000000e+000
      vertex   3.013813e+000 -1.043953e+001 5.000000e+000
    endloop
  endfacet
  facet normal 9.921147e-001 1.253332e-001 -4.452731e-017
    outer loop
      vertex   3.013813e+000 -1.043953e+001 0.000000e+000
      vertex   3.013813e+000 -1.043953e+001 5.000000e+000
      vertex   3.123989e+000 -1.131167e+001 5.000000e+000
    endloop
  endfacet
  facet normal 9.685832e-001 2.486899e-001 -4.649861e-018
    outer loop
      vertex   3.123989e+000 -1.131167e+001 0.000000e+000
      vertex   3.123989e+000 -1.131167e+001 5.000000e+000
      vertex   3.342604e+000 -1.216312e+001 5.000000e+000
    endloop
  endfacet
  facet normal 9.297765e-001 3.681246e-001 -1.307841e-016
    outer loop
      vertex   3.342604e+000 -1.216312e+001 0.000000e+000
      vertex   3.342604e+000 -1.216312e+001 5.000000e+000
      vertex   3.666211e+000 -1.298046e+001 5.000000e+000
    endloop
  endfacet
  facet normal 8.763067e-001 4.817537e-001 -1.548995e-017
    outer loop
      vertex   3.666211e+000 -1.298046e+001 0.000000e+000
      vertex   3.666211e+000 -1.298046e+001 5.000000e+000
      vertex   4.089705e+000 -1.375079e+001 5.000000e+000
    endloop
  endfacet
  facet normal 8.090170e-001 5.877853e-001 7.859730e-017
    outer loop
      vertex   4.089705e+000 -1.375079e+001 0.000000e+000
      vertex   4.089705e+000 -1.375079e+001 5.000000e+000
      vertex   4.606407e+000 -1.446197e+001 5.000000e+000
    endloop
  endfacet
  facet normal 7.289686e-001 6.845471e-001 -3.569091e-016
    outer loop
      vertex   4.606407e+000 -1.446197e+001 0.000000e+000
      vertex   4.606407e+000 -1.446197e+001 5.000000e+000
      vertex   5.208170e+000 -1.510278e+001 5.000000e+000
    endloop
  endfacet
  facet normal 6.374240e-001 7.705132e-001 -4.728280e-017
    outer loop
      vertex   5.208170e+000 -1.510278e+001 0.000000e+000
      vertex   5.208170e+000 -1.510278e+001 5.000000e+000
      vertex   5.885503e+000 -1.566312e+001 5.000000e+000
    endloop
  endfacet
  facet normal 5.358268e-001 8.443279e-001 -0.000000e+000
    outer loop
      vertex   5.885503e+000 -1.566312e+001 0.000000e+000
      vertex   5.885503e+000 -1.566312e+001 5.000000e+000
      vertex   6.627724e+000 -1.613415e+001 5.000000e+000
    endloop
  endfacet
  facet normal 4.257793e-001 9.048271e-001 1.512672e-016
    outer loop
      vertex   6.627724e+000 -1.613415e+001 0.000000e+000
      vertex   6.627724e+000 -1.613415e+001 5.000000e+000
      vertex   7.423128e+000 -1.650844e+001 5.000000e+000
    endloop
  endfacet
  facet normal 3.090170e-001 9.510565e-001 -5.110890e-016
    outer loop
      vertex   7.423128e+000 -1.650844e+001 0.000000e+000
      vertex   7.423128e+000 -1.650844e+001 5.000000e+000
      vertex   8.259171e+000 -1.678008e+001 5.000000e+000
    endloop
  endfacet
  facet normal 1.873813e-001 9.822873e-001 6.657122e-017
    outer loop
      vertex   8.259171e+000 -1.678008e+001 0.000000e+000
      vertex   8.259171e+000 -1.678008e+001 5.000000e+000
      vertex   9.122667e+000 -1.694480e+001 5.000000e+000
    endloop
  endfacet
  facet normal 6.279052e-002 9.980267e-001 2.230767e-017
    outer loop
      vertex   9.122667e+000 -1.694480e+001 0.000000e+000
      vertex   9.122667e+000 -1.694480e+001 5.000000e+000
      vertex   1.000000e+001 -1.700000e+001 5.000000e+000
    endloop
  endfacet
  facet normal 6.279052e-002 9.980267e-001 0.000000e+000
    outer loop
      vertex   1.000000e+001 -1.700000e+001 0.000000e+000
      vertex   9.122667e+000 -1.694480e+001 0.000000e+000
      vertex   1.000000e+001 -1.700000e+001 5.000000e+000
    endloop
  endfacet
  facet normal 4.257793e-001 -9.048271e-001 0.000000e+000
    outer loop
      vertex   7.423128e+000 -3.491565e+000 0.000000e+000
      vertex   6.627724e+000 -3.865853e+000 5.000000e+000
      vertex   6.627724e+000 -3.865853e+000 0.000000e+000
    endloop
  endfacet
  facet normal 5.358268e-001 -8.443279e-001 0.000000e+000
    outer loop
      vertex   6.627724e+000 -3.865853e+000 0.000000e+000
      vertex   5.885503e+000 -4.336881e+000 5.000000e+000
      vertex   5.885503e+000 -4.336881e+000 0.000000e+000
    endloop
  endfacet
  facet normal 6.374240e-001 -7.705132e-001 7.092420e-017
    outer loop
      vertex   5.885503e+000 -4.336881e+000 0.000000e+000
      vertex   5.208170e+000 -4.897220e+000 5.000000e+000
      vertex   5.208170e+000 -4.897220e+000 0.000000e+000
    endloop
  endfacet
  facet normal 7.289686e-001 -6.845471e-001 1.058183e-016
    outer loop
      vertex   5.208170e+000 -4.897220e+000 0.000000e+000
      vertex   4.606407e+000 -5.538032e+000 5.000000e+000
      vertex   4.606407e+000 -5.538032e+000 0.000000e+000
    endloop
  endfacet
  facet normal 8.090170e-001 -5.877853e-001 1.302260e-016
    outer loop
      vertex   4.606407e+000 -5.538032e+000 0.000000e+000
      vertex   4.089705e+000 -6.249212e+000 5.000000e+000
      vertex   4.089705e+000 -6.249212e+000 0.000000e+000
    endloop
  endfacet
  facet normal 8.763067e-001 -4.817537e-001 0.000000e+000
    outer loop
      vertex   4.089705e+000 -6.249212e+000 0.000000e+000
      vertex   3.666211e+000 -7.019545e+000 5.000000e+000
      vertex   3.666211e+000 -7.019545e+000 0.000000e+000
    endloop
  endfacet
  facet normal 9.297765e-001 -3.681246e-001 -3.437737e-017
    outer loop
      vertex   3.666211e+000 -7.019545e+000 0.000000e+000
      vertex   3.342604e+000 -7.836881e+000 5.000000e+000
      vertex   3.342604e+000 -7.836881e+000 0.000000e+000
    endloop
  endfacet
  facet normal 9.685832e-001 -2.486899e-001 4.649861e-018
    outer loop
      vertex   3.342604e+000 -7.836881e+000 0.000000e+000
      vertex   3.123989e+000 -8.688331e+000 5.000000e+000
      vertex   3.123989e+000 -8.688331e+000 0.000000e+000
    endloop
  endfacet
  facet normal 9.921147e-001 -1.253332e-001 4.452731e-017
    outer loop
      vertex   3.123989e+000 -8.688331e+000 0.000000e+000
      vertex   3.013813e+000 -9.560466e+000 5.000000e+000
      vertex   3.013813e+000 -9.560466e+000 0.000000e+000
    endloop
  endfacet
  facet normal 1.000000e+000 0.000000e+000 0.000000e+000
    outer loop
      vertex   3.013813e+000 -9.560466e+000 0.000000e+000
      vertex   3.013813e+000 -1.043953e+001 5.000000e+000
      vertex   3.013813e+000 -1.043953e+001 0.000000e+000
    endloop
  endfacet
  facet normal 9.921147e-001 1.253332e-001 8.718035e-017
    outer loop
      vertex   3.013813e+000 -1.043953e+001 0.000000e+000
      vertex   3.123989e+000 -1.131167e+001 5.000000e+000
      vertex   3.123989e+000 -1.131167e+001 0.000000e+000
    endloop
  endfacet
  facet normal 9.685832e-001 2.486899e-001 -8.835240e-017
    outer loop
      vertex   3.123989e+000 -1.131167e+001 0.000000e+000
      vertex   3.342604e+000 -1.216312e+001 5.000000e+000
      vertex   3.342604e+000 -1.216312e+001 0.000000e+000
    endloop
  endfacet
  facet normal 9.297765e-001 3.681246e-001 3.437737e-017
    outer loop
      vertex   3.342604e+000 -1.216312e+001 0.000000e+000
      vertex   3.666211e+000 -1.298046e+001 5.000000e+000
      vertex   3.666211e+000 -1.298046e+001 0.000000e+000
    endloop
  endfacet
  facet normal 8.763067e-001 4.817537e-001 1.401734e-016
    outer loop
      vertex   3.666211e+000 -1.298046e+001 0.000000e+000
      vertex   4.089705e+000 -1.375079e+001 5.000000e+000
      vertex   4.089705e+000 -1.375079e+001 0.000000e+000
    endloop
  endfacet
  facet normal 8.090170e-001 5.877853e-001 -2.739363e-016
    outer loop
      vertex   4.089705e+000 -1.375079e+001 0.000000e+000
      vertex   4.606407e+000 -1.446197e+001 5.000000e+000
      vertex   4.606407e+000 -1.446197e+001 0.000000e+000
    endloop
  endfacet
  facet normal 7.289686e-001 6.845471e-001 1.578169e-017
    outer loop
      vertex   4.606407e+000 -1.446197e+001 0.000000e+000
      vertex   5.208170e+000 -1.510278e+001 5.000000e+000
      vertex   5.208170e+000 -1.510278e+001 0.000000e+000
    endloop
  endfacet
  facet normal 6.374240e-001 7.705132e-001 0.000000e+000
    outer loop
      vertex   5.208170e+000 -1.510278e+001 0.000000e+000
      vertex   5.885503e+000 -1.566312e+001 5.000000e+000
      vertex   5.885503e+000 -1.566312e+001 0.000000e+000
    endloop
  endfacet
  facet normal 5.358268e-001 8.443279e-001 1.903639e-016
    outer loop
      vertex   5.885503e+000 -1.566312e+001 0.000000e+000
      vertex   6.627724e+000 -1.613415e+001 5.000000e+000
      vertex   6.627724e+000 -1.613415e+001 0.000000e+000
    endloop
  endfacet
  facet normal 4.257793e-001 9.048271e-001 -4.160175e-016
    outer loop
      vertex   6.627724e+000 -1.613415e+001 0.000000e+000
      vertex   7.423128e+000 -1.650844e+001 5.000000e+000
      vertex   7.423128e+000 -1.650844e+001 0.000000e+000
    endloop
  endfacet
  facet normal 3.090170e-001 9.510565e-001 1.097849e-016
    outer loop
      vertex   7.423128e+000 -1.650844e+001 0.000000e+000
      vertex   8.259171e+000 -1.678008e+001 5.000000e+000
      vertex   8.259171e+000 -1.678008e+001 0.000000e+000
    endloop
  endfacet
  facet normal 1.873813e-001 9.822873e-001 6.657122e-017
    outer loop
      vertex   8.259171e+000 -1.678008e+001 0.000000e+000
      vertex   9.122667e+000 -1.694480e+001 5.000000e+000
      vertex   9.122667e+000 -1.694480e+001 0.000000e+000
    endloop
  endfacet
  facet normal -0.000000e+000 1.000000e+000 0.000000e+000
    outer loop
      vertex   0.000000e+000 0.000000e+000 0.000000e+000
      vertex   0.000000e+000 0.000000e+000 5.000000e+000
      vertex   1.000000e+001 0.000000e+000 0.000000e+000
    endloop
  endfacet
  facet normal 0.000000e+000 1.000000e+000 -0.000000e+000
    outer loop
      vertex   1.000000e+001 0.000000e+000 0.000000e+000
      vertex   0.000000e+000 0.000000e+000 5.000000e+000
      vertex   1.000000e+001 0.000000e+000 5.000000e+000
    endloop
  endfacet
  facet normal 0.000000e+000 1.000000e+000 -0.000000e+000
    outer loop
      vertex   2.000000e+001 0.000000e+000 0.000000e+000
      vertex   1.000000e+001 0.000000e+000 5.000000e+000
      vertex   2.000000e+001 0.000000e+000 5.000000e+000
    endloop
  endfacet
  facet normal 0.000000e+000 1.000000e+000 -0.000000e+000
    outer loop
      vertex   2.000000e+001 0.000000e+000 0.000000e+000
      vertex   1.000000e+001 0.000000e+000 0.000000e+000
      vertex   1.000000e+001 0.000000e+000 5.000000e+000
    endloop
  endfacet
  facet normal 1.000000e+000 0.000000e+000 -0.000000e+000
    outer loop
      vertex   2.000000e+001 0.000000e+000 0.000000e+000
      vertex   2.000000e+001 0.000000e+000 5.000000e+000
      vertex   2.000000e+001 -1.000000e+001 0.000000e+000
    endloop
  endfacet
  facet normal 1.000000e+000 0.000000e+000 -0.000000e+000
    outer loop
      vertex   2.000000e+001 -1.000000e+001 0.000000e+000
      vertex   2.000000e+001 0.000000e+000 5.000000e+000
      vertex   2.000000e+001 -1.000000e+001 5.000000e+000
    endloop
  endfacet
  facet normal 1.000000e+000 0.000000e+000 -0.000000e+000
    outer loop
      vertex   2.000000e+001 -2.000000e+001 0.000000e+000
      vertex   2.000000e+001 -1.000000e+001 5.000000e+000
      vertex   2.000000e+001 -2.000000e+001 5.000000e+000
    endloop
  endfacet
  facet normal 1.000000e+000 0.000000e+000 0.000000e+000
    outer loop
      vertex   2.000000e+001 -2.000000e+001 0.000000e+000
      vertex   2.000000e+001 -1.000000e+001 0.000000e+000
      vertex   2.000000e+001 -1.000000e+001 5.000000e+000
    endloop
  endfacet
  facet normal -0.000000e+000 -1.000000e+000 0.000000e+000
    outer loop
      vertex   2.000000e+001 -2.000000e+001 0.000000e+000
      vertex   2.000000e+001 -2.000000e+001 5.000000e+000
      vertex   1.000000e+001 -2.000000e+001 0.000000e+000
    endloop
  endfacet
  facet normal 0.000000e+000 -1.000000e+000 0.000000e+000
    outer loop
      vertex   1.000000e+001 -2.000000e+001 0.000000e+000
      vertex   2.000000e+001 -2.000000e+001 5.000000e+000
      vertex   1.000000e+001 -2.000000e+001 5.000000e+000
    endloop
  endfacet
  facet normal 0.000000e+000 -1.000000e+000 0.000000e+000
    outer loop
      vertex   0.000000e+000 -2.000000e+001 0.000000e+000
      vertex   1.000000e+001 -2.000000e+001 5.000000e+000
      vertex   0.000000e+000 -2.000000e+001 5.000000e+000
    endloop
  endfacet
  facet normal 0.000000e+000 -1.000000e+000 0.000000e+000
    outer loop
      vertex   0.000000e+000 -2.000000e+001 0.000000e+000
      vertex   1.000000e+001 -2.000000e+001 0.000000e+000
      vertex   1.000000e+001 -2.000000e+001 5.000000e+000
    endloop
  endfacet
  facet normal -1.000000e+000 0.000000e+000 0.000000e+000
    outer loop
      vertex   0.000000e+000 -2.000000e+001 0.000000e+000
      vertex   0.000000e+000 -2.000000e+001 5.000000e+000
      vertex   0.000000e+000 -1.000000e+001 0.000000e+000
    endloop
  endfacet
  facet normal -1.000000e+000 0.000000e+000 0.000000e+000
    outer loop
      vertex   0.000000e+000 -1.000000e+001 0.000000e+000
      vertex   0.000000e+000 -2.000000e+001 5.000000e+000
      vertex   0.000000e+000 -1.000000e+001 5.000000e+000
    endloop
  endfacet
  facet normal -1.000000e+000 0.000000e+000 0.000000e+000
    outer loop
      vertex   0.000000e+000 0.000000e+000 0.000000e+000
      vertex   0.000000e+000 -1.000000e+001 5.000000e+000
      vertex   0.000000e+000 0.000000e+000 5.000000e+000
    endloop
  endfacet
  facet normal -1.000000e+000 0.000000e+000 0.000000e+000
    outer loop
      vertex   0.000000e+000 0.000000e+000 0.000000e+000
      vertex   0.000000e+000 -1.000000e+001 0.000000e+000
      vertex   0.000000e+000 -1.000000e+001 5.000000e+000
    endloop
  endfacet
  facet normal 0.000000e+000 0.000000e+000 -1.000000e+000
    outer loop
      vertex   1.000000e+001 -3.000000e+000 0.000000e+000
      vertex   1.000000e+001 0.000000e+000 0.000000e+000
      vertex   1.700000e+001 -3.000000e+000 0.000000e+000
    endloop
  endfacet
  facet normal -0.000000e+000 0.000000e+000 -1.000000e+000
    outer loop
      vertex   1.000000e+001 -3.000000e+000 0.000000e+000
      vertex   9.122667e+000 -3.055197e+000 0.000000e+000
      vertex   1.000000e+001 0.000000e+000 0.000000e+000
    endloop
  endfacet
  facet normal 0.000000e+000 0.000000e+000 -1.000000e+000
    outer loop
      vertex   1.000000e+001 0.000000e+000 0.000000e+000
      vertex   9.122667e+000 -3.055197e+000 0.000000e+000
      vertex   8.259171e+000 -3.219918e+000 0.000000e+000
    endloop
  endfacet
  facet normal 0.000000e+000 -0.000000e+000 -1.000000e+000
    outer loop
      vertex   7.423128e+000 -3.491565e+000 0.000000e+000
      vertex   1.000000e+001 0.000000e+000 0.000000e+000
      vertex   8.259171e+000 -3.219918e+000 0.000000e+000
    endloop
  endfacet
  facet normal 0.000000e+000 0.000000e+000 -1.000000e+000
    outer loop
      vertex   7.423128e+000 -3.491565e+000 0.000000e+000
      vertex   0.000000e+000 0.000000e+000 0.000000e+000
      vertex   1.000000e+001 0.000000e+000 0.000000e+000
    endloop
  endfacet
  facet normal -0.000000e+000 0.000000e+000 -1.000000e+000
    outer loop
      vertex   7.423128e+000 -3.491565e+000 0.000000e+000
      vertex   6.627724e+000 -3.865853e+000 0.000000e+000
      vertex   0.000000e+000 0.000000e+000 0.000000e+000
    endloop
  endfacet
  facet normal 0.000000e+000 -0.000000e+000 -1.000000e+000
    outer loop
      vertex   0.000000e+000 0.000000e+000 0.000000e+000
      vertex   6.627724e+000 -3.865853e+000 0.000000e+000
      vertex   5.885503e+000 -4.336881e+000 0.000000e+000
    endloop
  endfacet
  facet normal 0.000000e+000 0.000000e+000 -1.000000e+000
    outer loop
      vertex   5.208170e+000 -4.897220e+000 0.000000e+000
      vertex   0.000000e+000 0.000000e+000 0.000000e+000
      vertex   5.885503e+000 -4.336881e+000 0.000000e+000
    endloop
  endfacet
  facet normal -0.000000e+000 0.000000e+000 -1.000000e+000
    outer loop
      vertex   5.208170e+000 -4.897220e+000 0.000000e+000
      vertex   4.606407e+000 -5.538032e+000 0.000000e+000
      vertex   0.000000e+000 0.000000e+000 0.000000e+000
    endloop
  endfacet
  facet normal 0.000000e+000 -0.000000e+000 -1.000000e+000
    outer loop
      vertex   0.000000e+000 0.000000e+000 0.000000e+000
      vertex   4.606407e+000 -5.538032e+000 0.000000e+000
      vertex   4.089705e+000 -6.249212e+000 0.000000e+000
    endloop
  endfacet
  facet normal 0.000000e+000 0.000000e+000 -1.000000e+000
    outer loop
      vertex   3.666211e+000 -7.019545e+000 0.000000e+000
      vertex   0.000000e+000 0.000000e+000 0.000000e+000
      vertex   4.089705e+000 -6.249212e+000 0.000000e+000
    endloop
  endfacet
  facet normal -0.000000e+000 0.000000e+000 -1.000000e+000
    outer loop
      vertex   3.666211e+000 -7.019545e+000 0.000000e+000
      vertex   0.000000e+000 -1.000000e+001 0.000000e+000
      vertex   0.000000e+000 0.000000e+000 0.000000e+000
    endloop
  endfacet
  facet normal 0.000000e+000 0.000000e+000 -1.000000e+000
    outer loop
      vertex   3.666211e+000 -7.019545e+000 0.000000e+000
      vertex   3.342604e+000 -7.836881e+000 0.000000e+000
      vertex   0.000000e+000 -1.000000e+001 0.000000e+000
    endloop
  endfacet
  facet normal 0.000000e+000 -0.000000e+000 -1.000000e+000
    outer loop
      vertex   0.000000e+000 -1.000000e+001 0.000000e+000
      vertex   3.342604e+000 -7.836881e+000 0.000000e+000
      vertex   3.123989e+000 -8.688331e+000 0.000000e+000
    endloop
  endfacet
  facet normal -0.000000e+000 0.000000e+000 -1.000000e+000
    outer loop
      vertex   3.013813e+000 -9.560466e+000 0.000000e+000
      vertex   0.000000e+000 -1.000000e+001 0.000000e+000
      vertex   3.123989e+000 -8.688331e+000 0.000000e+000
    endloop
  endfacet
  facet normal -0.000000e+000 -0.000000e+000 -1.000000e+000
    outer loop
      vertex   3.013813e+000 -9.560466e+000 0.000000e+000
      vertex   3.013813e+000 -1.043953e+001 0.000000e+000
      vertex   0.000000e+000 -1.000000e+001 0.000000e+000
    endloop
  endfacet
  facet normal 0.000000e+000 0.000000e+000 -1.000000e+000
    outer loop
      vertex   0.000000e+000 -1.000000e+001 0.000000e+000
      vertex   3.013813e+000 -1.043953e+001 0.000000e+000
      vertex   3.123989e+000 -1.131167e+001 0.000000e+000
    endloop
  endfacet
  facet normal 0.000000e+000 0.000000e+000 -1.000000e+000
    outer loop
      vertex   3.342604e+000 -1.216312e+001 0.000000e+000
      vertex   0.000000e+000 -1.000000e+001 0.000000e+000
      vertex   3.123989e+000 -1.131167e+001 0.000000e+000
    endloop
  endfacet
  facet normal -0.000000e+000 -0.000000e+000 -1.000000e+000
    outer loop
      vertex   3.342604e+000 -1.216312e+001 0.000000e+000
      vertex   3.666211e+000 -1.298046e+001 0.000000e+000
      vertex   0.000000e+000 -1.000000e+001 0.000000e+000
    endloop
  endfacet
  facet normal 0.000000e+000 -0.000000e+000 -1.000000e+000
    outer loop
      vertex   0.000000e+000 -1.000000e+001 0.000000e+000
      vertex   3.666211e+000 -1.298046e+001 0.000000e+000
      vertex   0.000000e+000 -2.000000e+001 0.000000e+000
    endloop
  endfacet
  facet normal 0.000000e+000 0.000000e+000 -1.000000e+000
    outer loop
      vertex   0.000000e+000 -2.000000e+001 0.000000e+000
      vertex   3.666211e+000 -1.298046e+001 0.000000e+000
      vertex   4.089705e+000 -1.375079e+001 0.000000e+000
    endloop
  endfacet
  facet normal -0.000000e+000 0.000000e+000 -1.000000e+000
    outer loop
      vertex   4.606407e+000 -1.446197e+001 0.000000e+000
      vertex   0.000000e+000 -2.000000e+001 0.000000e+000
      vertex   4.089705e+000 -1.375079e+001 0.000000e+000
    endloop
  endfacet
  facet normal 0.000000e+000 -0.000000e+000 -1.000000e+000
    outer loop
      vertex   4.606407e+000 -1.446197e+001 0.000000e+000
      vertex   5.208170e+000 -1.510278e+001 0.000000e+000
      vertex   0.000000e+000 -2.000000e+001 0.000000e+000
    endloop
  endfacet
  facet normal 0.000000e+000 0.000000e+000 -1.000000e+000
    outer loop
      vertex   0.000000e+000 -2.000000e+001 0.000000e+000
      vertex   5.208170e+000 -1.510278e+001 0.000000e+000
      vertex   5.885503e+000 -1.566312e+001 0.000000e+000
    endloop
  endfacet
  facet normal -0.000000e+000 0.000000e+000 -1.000000e+000
    outer loop
      vertex   6.627724e+000 -1.613415e+001 0.000000e+000
      vertex   0.000000e+000 -2.000000e+001 0.000000e+000
      vertex   5.885503e+000 -1.566312e+001 0.000000e+000
    endloop
  endfacet
  facet normal 0.000000e+000 -0.000000e+000 -1.000000e+000
    outer loop
      vertex   6.627724e+000 -1.613415e+001 0.000000e+000
      vertex   7.423128e+000 -1.650844e+001 0.000000e+000
      vertex   0.000000e+000 -2.000000e+001 0.000000e+000
    endloop
  endfacet
  facet normal 0.000000e+000 0.000000e+000 -1.000000e+000
    outer loop
      vertex   0.000000e+000 -2.000000e+001 0.000000e+000
      vertex   7.423128e+000 -1.650844e+001 0.000000e+000
      vertex   1.000000e+001 -2.000000e+001 0.000000e+000
    endloop
  endfacet
  facet normal 0.000000e+000 0.000000e+000 -1.000000e+000
    outer loop
      vertex   1.000000e+001 -2.000000e+001 0.000000e+000
      vertex   7.423128e+000 -1.650844e+001 0.000000e+000
      vertex   8.259171e+000 -1.678008e+001 0.000000e+000
    endloop
  endfacet
  facet normal -0.000000e+000 -0.000000e+000 -1.000000e+000
    outer loop
      vertex   9.122667e+000 -1.694480e+001 0.000000e+000
      vertex   1.000000e+001 -2.000000e+001 0.000000e+000
      vertex   8.259171e+000 -1.678008e+001 0.000000e+000
    endloop
  endfacet
  facet normal 0.000000e+000 0.000000e+000 -1.000000e+000
    outer loop
      vertex   9.122667e+000 -1.694480e+001 0.000000e+000
      vertex   1.000000e+001 -1.700000e+001 0.000000e+000
      vertex   1.000000e+001 -2.000000e+001 0.000000e+000
    endloop
  endfacet
  facet normal 0.000000e+000 0.000000e+000 -1.000000e+000
    outer loop
      vertex   1.000000e+001 -2.000000e+001 0.000000e+000
      vertex   1.000000e+001 -1.700000e+001 0.000000e+000
      vertex   1.700000e+001 -1.700000e+001 0.000000e+000
    endloop
  endfacet
  facet normal 0.000000e+000 0.000000e+000 -1.000000e+000
    outer loop
      vertex   2.000000e+001 -2.000000e+001 0.000000e+000
      vertex   1.700000e+001 -1.700000e+001 0.000000e+000
      vertex   2.000000e+001 -1.000000e+001 0.000000e+000
    endloop
  endfacet
  facet normal 0.000000e+000 0.000000e+000 -1.000000e+000
    outer loop
      vertex   2.000000e+001 -2.000000e+001 0.000000e+000
      vertex   1.000000e+001 -2.000000e+001 0.000000e+000
      vertex   1.700000e+001 -1.700000e+001 0.000000e+000
    endloop
  endfacet
  facet normal 0.000000e+000 0.000000e+000 -1.000000e+000
    outer loop
      vertex   1.700000e+001 -1.700000e+001 0.000000e+000
      vertex   1.700000e+001 -1.000000e+001 0.000000e+000
      vertex   2.000000e+001 -1.000000e+001 0.000000e+000
    endloop
  endfacet
  facet normal 0.000000e+000 0.000000e+000 -1.000000e+000
    outer loop
      vertex   2.000000e+001 -1.000000e+001 0.000000e+000
      vertex   1.700000e+001 -1.000000e+001 0.000000e+000
      vertex   1.700000e+001 -3.000000e+000 0.000000e+000
    endloop
  endfacet
  facet normal -0.000000e+000 0.000000e+000 -1.000000e+000
    outer loop
      vertex   2.000000e+001 0.000000e+000 0.000000e+000
      vertex   1.700000e+001 -3.000000e+000 0.000000e+000
      vertex   1.000000e+001 0.000000e+000 0.000000e+000
    endloop
  endfacet
  facet normal -0.000000e+000 -0.000000e+000 -1.000000e+000
    outer loop
      vertex   2.000000e+001 0.000000e+000 0.000000e+000
      vertex   2.000000e+001 -1.000000e+001 0.000000e+000
      vertex   1.700000e+001 -3.000000e+000 0.000000e+000
    endloop
  endfacet
  facet normal 0.000000e+000 0.000000e+000 1.000000e+000
    outer loop
      vertex   9.122667e+000 -3.055197e+000 5.000000e+000
      vertex   1.000000e+001 -3.000000e+000 5.000000e+000
      vertex   1.000000e+001 0.000000e+000 5.000000e+000
    endloop
  endfacet
  facet normal 0.000000e+000 -0.000000e+000 1.000000e+000
    outer loop
      vertex   8.259171e+000 -3.219918e+000 5.000000e+000
      vertex   1.000000e+001 0.000000e+000 5.000000e+000
      vertex   7.423128e+000 -3.491565e+000 5.000000e+000
    endloop
  endfacet
  facet normal 0.000000e+000 0.000000e+000 1.000000e+000
    outer loop
      vertex   8.259171e+000 -3.219918e+000 5.000000e+000
      vertex   9.122667e+000 -3.055197e+000 5.000000e+000
      vertex   1.000000e+001 0.000000e+000 5.000000e+000
    endloop
  endfacet
  facet normal 0.000000e+000 -0.000000e+000 1.000000e+000
    outer loop
      vertex   1.700000e+001 -1.000000e+001 5.000000e+000
      vertex   2.000000e+001 -1.000000e+001 5.000000e+000
      vertex   1.700000e+001 -3.000000e+000 5.000000e+000
    endloop
  endfacet
  facet normal -0.000000e+000 0.000000e+000 1.000000e+000
    outer loop
      vertex   1.700000e+001 -1.000000e+001 5.000000e+000
      vertex   1.700000e+001 -1.700000e+001 5.000000e+000
      vertex   2.000000e+001 -1.000000e+001 5.000000e+000
    endloop
  endfacet
  facet normal 0.000000e+000 0.000000e+000 1.000000e+000
    outer loop
      vertex   2.000000e+001 -1.000000e+001 5.000000e+000
      vertex   1.700000e+001 -1.700000e+001 5.000000e+000
      vertex   2.000000e+001 -2.000000e+001 5.000000e+000
    endloop
  endfacet
  facet normal 0.000000e+000 0.000000e+000 1.000000e+000
    outer loop
      vertex   2.000000e+001 -2.000000e+001 5.000000e+000
      vertex   1.700000e+001 -1.700000e+001 5.000000e+000
      vertex   1.000000e+001 -2.000000e+001 5.000000e+000
    endloop
  endfacet
  facet normal 0.000000e+000 -0.000000e+000 1.000000e+000
    outer loop
      vertex   1.000000e+001 -2.000000e+001 5.000000e+000
      vertex   1.700000e+001 -1.700000e+001 5.000000e+000
      vertex   1.000000e+001 -1.700000e+001 5.000000e+000
    endloop
  endfacet
  facet normal -0.000000e+000 0.000000e+000 1.000000e+000
    outer loop
      vertex   9.122667e+000 -1.694480e+001 5.000000e+000
      vertex   1.000000e+001 -2.000000e+001 5.000000e+000
      vertex   1.000000e+001 -1.700000e+001 5.000000e+000
    endloop
  endfacet
  facet normal 0.000000e+000 0.000000e+000 1.000000e+000
    outer loop
      vertex   9.122667e+000 -1.694480e+001 5.000000e+000
      vertex   8.259171e+000 -1.678008e+001 5.000000e+000
      vertex   1.000000e+001 -2.000000e+001 5.000000e+000
    endloop
  endfacet
  facet normal 0.000000e+000 0.000000e+000 1.000000e+000
    outer loop
      vertex   1.000000e+001 -2.000000e+001 5.000000e+000
      vertex   8.259171e+000 -1.678008e+001 5.000000e+000
      vertex   7.423128e+000 -1.650844e+001 5.000000e+000
    endloop
  endfacet
  facet normal 0.000000e+000 -0.000000e+000 1.000000e+000
    outer loop
      vertex   0.000000e+000 -2.000000e+001 5.000000e+000
      vertex   7.423128e+000 -1.650844e+001 5.000000e+000
      vertex   6.627724e+000 -1.613415e+001 5.000000e+000
    endloop
  endfacet
  facet normal -0.000000e+000 0.000000e+000 1.000000e+000
    outer loop
      vertex   5.885503e+000 -1.566312e+001 5.000000e+000
      vertex   0.000000e+000 -2.000000e+001 5.000000e+000
      vertex   6.627724e+000 -1.613415e+001 5.000000e+000
    endloop
  endfacet
  facet normal 0.000000e+000 0.000000e+000 1.000000e+000
    outer loop
      vertex   5.885503e+000 -1.566312e+001 5.000000e+000
      vertex   5.208170e+000 -1.510278e+001 5.000000e+000
      vertex   0.000000e+000 -2.000000e+001 5.000000e+000
    endloop
  endfacet
  facet normal 0.000000e+000 -0.000000e+000 1.000000e+000
    outer loop
      vertex   0.000000e+000 -2.000000e+001 5.000000e+000
      vertex   5.208170e+000 -1.510278e+001 5.000000e+000
      vertex   4.606407e+000 -1.446197e+001 5.000000e+000
    endloop
  endfacet
  facet normal -0.000000e+000 0.000000e+000 1.000000e+000
    outer loop
      vertex   4.089705e+000 -1.375079e+001 5.000000e+000
      vertex   0.000000e+000 -2.000000e+001 5.000000e+000
      vertex   4.606407e+000 -1.446197e+001 5.000000e+000
    endloop
  endfacet
  facet normal 0.000000e+000 0.000000e+000 1.000000e+000
    outer loop
      vertex   4.089705e+000 -1.375079e+001 5.000000e+000
      vertex   3.666211e+000 -1.298046e+001 5.000000e+000
      vertex   0.000000e+000 -2.000000e+001 5.000000e+000
    endloop
  endfacet
  facet normal 0.000000e+000 -0.000000e+000 1.000000e+000
    outer loop
      vertex   0.000000e+000 -2.000000e+001 5.000000e+000
      vertex   3.666211e+000 -1.298046e+001 5.000000e+000
      vertex   0.000000e+000 -1.000000e+001 5.000000e+000
    endloop
  endfacet
  facet normal -0.000000e+000 -0.000000e+000 1.000000e+000
    outer loop
      vertex   0.000000e+000 -1.000000e+001 5.000000e+000
      vertex   3.666211e+000 -1.298046e+001 5.000000e+000
      vertex   3.342604e+000 -1.216312e+001 5.000000e+000
    endloop
  endfacet
  facet normal 0.000000e+000 0.000000e+000 1.000000e+000
    outer loop
      vertex   3.123989e+000 -1.131167e+001 5.000000e+000
      vertex   0.000000e+000 -1.000000e+001 5.000000e+000
      vertex   3.342604e+000 -1.216312e+001 5.000000e+000
    endloop
  endfacet
  facet normal 0.000000e+000 0.000000e+000 1.000000e+000
    outer loop
      vertex   3.123989e+000 -1.131167e+001 5.000000e+000
      vertex   3.013813e+000 -1.043953e+001 5.000000e+000
      vertex   0.000000e+000 -1.000000e+001 5.000000e+000
    endloop
  endfacet
  facet normal -0.000000e+000 0.000000e+000 1.000000e+000
    outer loop
      vertex   0.000000e+000 -1.000000e+001 5.000000e+000
      vertex   3.013813e+000 -1.043953e+001 5.000000e+000
      vertex   3.013813e+000 -9.560466e+000 5.000000e+000
    endloop
  endfacet
  facet normal -0.000000e+000 0.000000e+000 1.000000e+000
    outer loop
      vertex   3.123989e+000 -8.688331e+000 5.000000e+000
      vertex   0.000000e+000 -1.000000e+001 5.000000e+000
      vertex   3.013813e+000 -9.560466e+000 5.000000e+000
    endloop
  endfacet
  facet normal 0.000000e+000 -0.000000e+000 1.000000e+000
    outer loop
      vertex   3.123989e+000 -8.688331e+000 5.000000e+000
      vertex   3.342604e+000 -7.836881e+000 5.000000e+000
      vertex   0.000000e+000 -1.000000e+001 5.000000e+000
    endloop
  endfacet
  facet normal 0.000000e+000 0.000000e+000 1.000000e+000
    outer loop
      vertex   0.000000e+000 -1.000000e+001 5.000000e+000
      vertex   3.342604e+000 -7.836881e+000 5.000000e+000
      vertex   3.666211e+000 -7.019545e+000 5.000000e+000
    endloop
  endfacet
  facet normal -0.000000e+000 0.000000e+000 1.000000e+000
    outer loop
      vertex   0.000000e+000 0.000000e+000 5.000000e+000
      vertex   3.666211e+000 -7.019545e+000 5.000000e+000
      vertex   4.089705e+000 -6.249212e+000 5.000000e+000
    endloop
  endfacet
  facet normal 0.000000e+000 0.000000e+000 1.000000e+000
    outer loop
      vertex   4.606407e+000 -5.538032e+000 5.000000e+000
      vertex   0.000000e+000 0.000000e+000 5.000000e+000
      vertex   4.089705e+000 -6.249212e+000 5.000000e+000
    endloop
  endfacet
  facet normal 0.000000e+000 -0.000000e+000 1.000000e+000
    outer loop
      vertex   4.606407e+000 -5.538032e+000 5.000000e+000
      vertex   5.208170e+000 -4.897220e+000 5.000000e+000
      vertex   0.000000e+000 0.000000e+000 5.000000e+000
    endloop
  endfacet
  facet normal -0.000000e+000 0.000000e+000 1.000000e+000
    outer loop
      vertex   0.000000e+000 0.000000e+000 5.000000e+000
      vertex   5.208170e+000 -4.897220e+000 5.000000e+000
      vertex   5.885503e+000 -4.336881e+000 5.000000e+000
    endloop
  endfacet
  facet normal 0.000000e+000 0.000000e+000 1.000000e+000
    outer loop
      vertex   6.627724e+000 -3.865853e+000 5.000000e+000
      vertex   0.000000e+000 0.000000e+000 5.000000e+000
      vertex   5.885503e+000 -4.336881e+000 5.000000e+000
    endloop
  endfacet
  facet normal 0.000000e+000 -0.000000e+000 1.000000e+000
    outer loop
      vertex   6.627724e+000 -3.865853e+000 5.000000e+000
      vertex   7.423128e+000 -3.491565e+000 5.000000e+000
      vertex   0.000000e+000 0.000000e+000 5.000000e+000
    endloop
  endfacet
  facet normal -0.000000e+000 0.000000e+000 1.000000e+000
    outer loop
      vertex   0.000000e+000 0.000000e+000 5.000000e+000
      vertex   7.423128e+000 -3.491565e+000 5.000000e+000
      vertex   1.000000e+001 0.000000e+000 5.000000e+000
    endloop
  endfacet
  facet normal 0.000000e+000 0.000000e+000 1.000000e+000
    outer loop
      vertex   1.000000e+001 -2.000000e+001 5.000000e+000
      vertex   7.423128e+000 -1.650844e+001 5.000000e+000
      vertex   0.000000e+000 -2.000000e+001 5.000000e+000
    endloop
  endfacet
  facet normal 0.000000e+000 -0.000000e+000 1.000000e+000
    outer loop
      vertex   0.000000e+000 -1.000000e+001 5.000000e+000
      vertex   3.666211e+000 -7.019545e+000 5.000000e+000
      vertex   0.000000e+000 0.000000e+000 5.000000e+000
    endloop
  endfacet
  facet normal 0.000000e+000 -0.000000e+000 1.000000e+000
    outer loop
      vertex   2.000000e+001 -1.000000e+001 5.000000e+000
      vertex   2.000000e+001 0.000000e+000 5.000000e+000
      vertex   1.700000e+001 -3.000000e+000 5.000000e+000
    endloop
  endfacet
  facet normal 0.000000e+000 -0.000000e+000 1.000000e+000
    outer loop
      vertex   1.700000e+001 -3.000000e+000 5.000000e+000
      vertex   2.000000e+001 0.000000e+000 5.000000e+000
      vertex   1.000000e+001 0.000000e+000 5.000000e+000
    endloop
  endfacet
  facet normal 0.000000e+000 -0.000000e+000 1.000000e+000
    outer loop
      vertex   1.000000e+001 -3.000000e+000 5.000000e+000
      vertex   1.700000e+001 -3.000000e+000 5.000000e+000
      vertex   1.000000e+001 0.000000e+000 5.000000e+000
    endloop
  endfacet
endsolid
