  999
DXF file created by gear template generator.  2012-04-23T22:11:40
  0
SECTION
  2
HEADER
  9
$ACADVER
  1
AC1006
  9
$INSBASE
  10
0.0
  20
0.0
  30
0.0
  9
$EXTMIN
  10
0.0
  20
0.0
  9
$EXTMAX
  10
10000.0
  20
10000.0
  0
ENDSEC
  0
SECTION
  2
ENTITIES
 0
LWPOLYLINE
 8
profile
 90
720
 70
1
 10
2.99994
 20
1.54353
 10
3.00464
 20
1.54241
 10
3.00934
 20
1.54122
 10
3.01873
 20
1.53863
 10
3.03749
 20
1.53272
 10
3.05621
 20
1.5259
 10
3.07488
 20
1.51825
 10
3.0935
 20
1.50984
 10
3.11205
 20
1.5007
 10
3.10763
 20
1.42669
 10
3.08812
 20
1.41983
 10
3.06864
 20
1.41369
 10
3.04919
 20
1.40833
 10
3.02979
 20
1.40379
 10
3.01046
 20
1.40014
 10
3.00082
 20
1.39869
 10
2.99602
 20
1.39807
 10
2.99122
 20
1.39752
 10
2.98014
 20
1.31789
 10
2.98461
 20
1.31605
 10
2.98906
 20
1.31414
 10
2.99793
 20
1.31012
 10
3.01553
 20
1.30133
 10
3.03296
 20
1.29167
 10
3.0502
 20
1.2812
 10
3.06727
 20
1.26998
 10
3.08416
 20
1.25805
 10
3.06822
 20
1.18565
 10
3.04788
 20
1.18192
 10
3.02768
 20
1.1789
 10
3.00763
 20
1.17665
 10
2.98776
 20
1.1752
 10
2.96809
 20
1.17462
 10
2.95835
 20
1.1747
 10
2.95351
 20
1.17483
 10
2.94868
 20
1.17504
 10
2.92528
 20
1.09813
 10
2.92941
 20
1.09561
 10
2.93351
 20
1.09303
 10
2.94164
 20
1.08766
 10
2.95765
 20
1.07624
 10
2.97335
 20
1.06397
 10
2.98874
 20
1.05093
 10
3.00385
 20
1.03718
 10
3.01867
 20
1.02275
 10
2.99159
 20
0.95373
 10
2.97092
 20
0.95323
 10
2.95049
 20
0.95341
 10
2.93033
 20
0.95432
 10
2.91048
 20
0.956
 10
2.89097
 20
0.95851
 10
2.88136
 20
0.96011
 10
2.8766
 20
0.961
 10
2.87186
 20
0.96196
 10
2.83672
 20
0.88965
 10
2.8404
 20
0.88652
 10
2.84405
 20
0.88333
 10
2.85124
 20
0.87676
 10
2.86527
 20
0.86297
 10
2.87885
 20
0.84839
 10
2.89202
 20
0.8331
 10
2.90479
 20
0.81716
 10
2.91716
 20
0.80059
 10
2.87962
 20
0.73666
 10
2.85913
 20
0.7394
 10
2.83898
 20
0.74278
 10
2.81922
 20
0.74683
 10
2.79987
 20
0.75159
 10
2.78099
 20
0.75712
 10
2.77175
 20
0.7602
 10
2.76718
 20
0.76183
 10
2.76266
 20
0.76351
 10
2.71664
 20
0.6976
 10
2.71978
 20
0.69393
 10
2.72288
 20
0.6902
 10
2.72896
 20
0.68259
 10
2.74066
 20
0.66677
 10
2.75179
 20
0.65025
 10
2.76241
 20
0.63309
 10
2.77252
 20
0.61535
 10
2.78216
 20
0.59705
 10
2.73508
 20
0.53978
 10
2.71526
 20
0.54568
 10
2.69589
 20
0.55217
 10
2.677
 20
0.55927
 10
2.65864
 20
0.567
 10
2.64086
 20
0.57541
 10
2.63222
 20
0.5799
 10
2.62796
 20
0.58222
 10
2.62375
 20
0.5846
 10
2.56799
 20
0.52669
 10
2.57052
 20
0.52257
 10
2.573
 20
0.51841
 10
2.57781
 20
0.50994
 10
2.58689
 20
0.49249
 10
2.59531
 20
0.47443
 10
2.60311
 20
0.45582
 10
2.61032
 20
0.43671
 10
2.61697
 20
0.41713
 10
2.56152
 20
0.36793
 10
2.54287
 20
0.37686
 10
2.52475
 20
0.3863
 10
2.5072
 20
0.39626
 10
2.49028
 20
0.40677
 10
2.47403
 20
0.41786
 10
2.46619
 20
0.42365
 10
2.46235
 20
0.42661
 10
2.45857
 20
0.42961
 10
2.39443
 20
0.38114
 10
2.39629
 20
0.37668
 10
2.39809
 20
0.37218
 10
2.40152
 20
0.36306
 10
2.40775
 20
0.3444
 10
2.41324
 20
0.32525
 10
2.41803
 20
0.30565
 10
2.42217
 20
0.28565
 10
2.42568
 20
0.26527
 10
2.3632
 20
0.22535
 10
2.34618
 20
0.23709
 10
2.32977
 20
0.24925
 10
2.31399
 20
0.26183
 10
2.29892
 20
0.27485
 10
2.28461
 20
0.28835
 10
2.27777
 20
0.29529
 10
2.27444
 20
0.29882
 10
2.27118
 20
0.30237
 10
2.20025
 20
0.26453
 10
2.20138
 20
0.25984
 10
2.20245
 20
0.25511
 10
2.20441
 20
0.24557
 10
2.20766
 20
0.22616
 10
2.21008
 20
0.20639
 10
2.21175
 20
0.18628
 10
2.2127
 20
0.16588
 10
2.21298
 20
0.1452
 10
2.14503
 20
0.11554
 10
2.13006
 20
0.1298
 10
2.11574
 20
0.14438
 10
2.10213
 20
0.15927
 10
2.08928
 20
0.1745
 10
2.07726
 20
0.19007
 10
2.07159
 20
0.19799
 10
2.06886
 20
0.20199
 10
2.06618
 20
0.20602
 10
1.99021
 20
0.17974
 10
1.9906
 20
0.17492
 10
1.99092
 20
0.17009
 10
1.99136
 20
0.16035
 10
1.99152
 20
0.14068
 10
1.99082
 20
0.12077
 10
1.98933
 20
0.10065
 10
1.98708
 20
0.08035
 10
1.98412
 20
0.05988
 10
1.91237
 20
0.04122
 10
1.89981
 20
0.05765
 10
1.88795
 20
0.07428
 10
1.87684
 20
0.09112
 10
1.86652
 20
0.10817
 10
1.85709
 20
0.12543
 10
1.85273
 20
0.13414
 10
1.85065
 20
0.13852
 10
1.84864
 20
0.14292
 10
1.76949
 20
0.12885
 10
1.76912
 20
0.12403
 10
1.76868
 20
0.1192
 10
1.76759
 20
0.10952
 10
1.76468
 20
0.09007
 10
1.76088
 20
0.07051
 10
1.75625
 20
0.05087
 10
1.75085
 20
0.03117
 10
1.74472
 20
0.01142
 10
1.67094
 20
0.00421
 10
1.6611
 20
0.0224
 10
1.652
 20
0.04069
 10
1.64366
 20
0.05906
 10
1.63614
 20
0.07751
 10
1.62951
 20
0.09603
 10
1.62657
 20
0.10532
 10
1.62521
 20
0.10997
 10
1.62391
 20
0.11462
 10
1.54353
 20
0.11311
 10
1.54241
 20
0.10841
 10
1.54122
 20
0.10371
 10
1.53863
 20
0.09432
 10
1.53272
 20
0.07556
 10
1.5259
 20
0.05684
 10
1.51825
 20
0.03817
 10
1.50984
 20
0.01955
 10
1.5007
 20
0.001
 10
1.42669
 20
0.00542
 10
1.41983
 20
0.02493
 10
1.41369
 20
0.04441
 10
1.40833
 20
0.06386
 10
1.40379
 20
0.08326
 10
1.40014
 20
0.10259
 10
1.39869
 20
0.11223
 10
1.39807
 20
0.11703
 10
1.39752
 20
0.12183
 10
1.31789
 20
0.13291
 10
1.31605
 20
0.12844
 10
1.31414
 20
0.12399
 10
1.31012
 20
0.11512
 10
1.30133
 20
0.09752
 10
1.29167
 20
0.08009
 10
1.2812
 20
0.06285
 10
1.26998
 20
0.04578
 10
1.25805
 20
0.02889
 10
1.18565
 20
0.04483
 10
1.18192
 20
0.06517
 10
1.1789
 20
0.08538
 10
1.17665
 20
0.10542
 10
1.1752
 20
0.1253
 10
1.17462
 20
0.14496
 10
1.1747
 20
0.1547
 10
1.17483
 20
0.15955
 10
1.17504
 20
0.16437
 10
1.09813
 20
0.18777
 10
1.09561
 20
0.18365
 10
1.09303
 20
0.17954
 10
1.08766
 20
0.17141
 10
1.07624
 20
0.1554
 10
1.06397
 20
0.1397
 10
1.05093
 20
0.12431
 10
1.03718
 20
0.1092
 10
1.02275
 20
0.09439
 10
0.95373
 20
0.12146
 10
0.95323
 20
0.14213
 10
0.95341
 20
0.16256
 10
0.95432
 20
0.18272
 10
0.956
 20
0.20257
 10
0.95851
 20
0.22208
 10
0.96011
 20
0.23169
 10
0.961
 20
0.23645
 10
0.96196
 20
0.24119
 10
0.88965
 20
0.27633
 10
0.88652
 20
0.27265
 10
0.88333
 20
0.269
 10
0.87676
 20
0.26181
 10
0.86297
 20
0.24778
 10
0.84839
 20
0.2342
 10
0.8331
 20
0.22103
 10
0.81716
 20
0.20826
 10
0.80059
 20
0.19589
 10
0.73666
 20
0.23343
 10
0.7394
 20
0.25392
 10
0.74278
 20
0.27407
 10
0.74683
 20
0.29383
 10
0.75159
 20
0.31318
 10
0.75712
 20
0.33206
 10
0.7602
 20
0.3413
 10
0.76183
 20
0.34587
 10
0.76351
 20
0.35039
 10
0.6976
 20
0.39641
 10
0.69393
 20
0.39327
 10
0.6902
 20
0.39017
 10
0.68259
 20
0.38409
 10
0.66677
 20
0.37239
 10
0.65025
 20
0.36126
 10
0.63309
 20
0.35064
 10
0.61535
 20
0.34053
 10
0.59705
 20
0.33089
 10
0.53978
 20
0.37797
 10
0.54568
 20
0.39779
 10
0.55217
 20
0.41716
 10
0.55927
 20
0.43605
 10
0.567
 20
0.45441
 10
0.57541
 20
0.47219
 10
0.5799
 20
0.48084
 10
0.58222
 20
0.48509
 10
0.5846
 20
0.4893
 10
0.52669
 20
0.54506
 10
0.52257
 20
0.54253
 10
0.51841
 20
0.54005
 10
0.50994
 20
0.53524
 10
0.49249
 20
0.52616
 10
0.47443
 20
0.51774
 10
0.45582
 20
0.50994
 10
0.43671
 20
0.50273
 10
0.41713
 20
0.49608
 10
0.36793
 20
0.55153
 10
0.37686
 20
0.57018
 10
0.3863
 20
0.5883
 10
0.39626
 20
0.60585
 10
0.40677
 20
0.62277
 10
0.41786
 20
0.63902
 10
0.42365
 20
0.64686
 10
0.42661
 20
0.6507
 10
0.42961
 20
0.65448
 10
0.38114
 20
0.71862
 10
0.37668
 20
0.71676
 10
0.37218
 20
0.71496
 10
0.36306
 20
0.71154
 10
0.3444
 20
0.7053
 10
0.32525
 20
0.69981
 10
0.30565
 20
0.69502
 10
0.28565
 20
0.69088
 10
0.26527
 20
0.68737
 10
0.22535
 20
0.74985
 10
0.23709
 20
0.76687
 10
0.24925
 20
0.78328
 10
0.26183
 20
0.79906
 10
0.27485
 20
0.81413
 10
0.28835
 20
0.82844
 10
0.29529
 20
0.83528
 10
0.29882
 20
0.83861
 10
0.30237
 20
0.84188
 10
0.26453
 20
0.9128
 10
0.25984
 20
0.91167
 10
0.25511
 20
0.9106
 10
0.24557
 20
0.90864
 10
0.22616
 20
0.90539
 10
0.20639
 20
0.90297
 10
0.18628
 20
0.9013
 10
0.16588
 20
0.90035
 10
0.1452
 20
0.90007
 10
0.11554
 20
0.96802
 10
0.1298
 20
0.98299
 10
0.14438
 20
0.99731
 10
0.15927
 20
1.01092
 10
0.1745
 20
1.02377
 10
0.19007
 20
1.03579
 10
0.19799
 20
1.04146
 10
0.20199
 20
1.0442
 10
0.20602
 20
1.04687
 10
0.17974
 20
1.12284
 10
0.17492
 20
1.12245
 10
0.17009
 20
1.12213
 10
0.16035
 20
1.12169
 10
0.14068
 20
1.12153
 10
0.12077
 20
1.12223
 10
0.10065
 20
1.12372
 10
0.08035
 20
1.12597
 10
0.05988
 20
1.12893
 10
0.04122
 20
1.20068
 10
0.05765
 20
1.21324
 10
0.07428
 20
1.2251
 10
0.09112
 20
1.23621
 10
0.10817
 20
1.24653
 10
0.12543
 20
1.25596
 10
0.13414
 20
1.26032
 10
0.13852
 20
1.2624
 10
0.14292
 20
1.26441
 10
0.12885
 20
1.34356
 10
0.12403
 20
1.34393
 10
0.1192
 20
1.34437
 10
0.10952
 20
1.34546
 10
0.09007
 20
1.34837
 10
0.07051
 20
1.35217
 10
0.05087
 20
1.3568
 10
0.03117
 20
1.3622
 10
0.01142
 20
1.36833
 10
0.00421
 20
1.44211
 10
0.0224
 20
1.45195
 10
0.04069
 20
1.46105
 10
0.05906
 20
1.46939
 10
0.07751
 20
1.47691
 10
0.09603
 20
1.48354
 10
0.10532
 20
1.48648
 10
0.10997
 20
1.48784
 10
0.11462
 20
1.48914
 10
0.11311
 20
1.56952
 10
0.10841
 20
1.57064
 10
0.10371
 20
1.57183
 10
0.09432
 20
1.57442
 10
0.07556
 20
1.58033
 10
0.05684
 20
1.58715
 10
0.03817
 20
1.5948
 10
0.01955
 20
1.60321
 10
0.001
 20
1.61235
 10
0.00542
 20
1.68636
 10
0.02493
 20
1.69322
 10
0.04441
 20
1.69936
 10
0.06386
 20
1.70472
 10
0.08326
 20
1.70926
 10
0.10259
 20
1.71291
 10
0.11223
 20
1.71436
 10
0.11703
 20
1.71498
 10
0.12183
 20
1.71553
 10
0.13291
 20
1.79516
 10
0.12844
 20
1.797
 10
0.12399
 20
1.79891
 10
0.11512
 20
1.80294
 10
0.09752
 20
1.81172
 10
0.08009
 20
1.82138
 10
0.06285
 20
1.83185
 10
0.04578
 20
1.84307
 10
0.02889
 20
1.855
 10
0.04483
 20
1.9274
 10
0.06517
 20
1.93113
 10
0.08538
 20
1.93415
 10
0.10542
 20
1.9364
 10
0.1253
 20
1.93785
 10
0.14496
 20
1.93843
 10
0.1547
 20
1.93835
 10
0.15955
 20
1.93822
 10
0.16437
 20
1.93801
 10
0.18777
 20
2.01492
 10
0.18365
 20
2.01744
 10
0.17954
 20
2.02002
 10
0.17141
 20
2.02539
 10
0.1554
 20
2.03681
 10
0.1397
 20
2.04908
 10
0.12431
 20
2.06212
 10
0.1092
 20
2.07587
 10
0.09439
 20
2.0903
 10
0.12146
 20
2.15932
 10
0.14213
 20
2.15982
 10
0.16256
 20
2.15964
 10
0.18272
 20
2.15873
 10
0.20257
 20
2.15705
 10
0.22208
 20
2.15454
 10
0.23169
 20
2.15294
 10
0.23645
 20
2.15205
 10
0.24119
 20
2.15109
 10
0.27633
 20
2.2234
 10
0.27265
 20
2.22653
 10
0.269
 20
2.22972
 10
0.26181
 20
2.23629
 10
0.24778
 20
2.25008
 10
0.2342
 20
2.26466
 10
0.22103
 20
2.27995
 10
0.20826
 20
2.29589
 10
0.19589
 20
2.31246
 10
0.23343
 20
2.37639
 10
0.25392
 20
2.37365
 10
0.27407
 20
2.37027
 10
0.29383
 20
2.36622
 10
0.31318
 20
2.36146
 10
0.33206
 20
2.35593
 10
0.3413
 20
2.35285
 10
0.34587
 20
2.35122
 10
0.35039
 20
2.34954
 10
0.39641
 20
2.41545
 10
0.39327
 20
2.41912
 10
0.39017
 20
2.42285
 10
0.38409
 20
2.43046
 10
0.37239
 20
2.44628
 10
0.36126
 20
2.4628
 10
0.35064
 20
2.47996
 10
0.34053
 20
2.4977
 10
0.33089
 20
2.516
 10
0.37797
 20
2.57327
 10
0.39779
 20
2.56737
 10
0.41716
 20
2.56088
 10
0.43605
 20
2.55378
 10
0.45441
 20
2.54606
 10
0.47219
 20
2.53764
 10
0.48084
 20
2.53315
 10
0.48509
 20
2.53083
 10
0.4893
 20
2.52845
 10
0.54506
 20
2.58636
 10
0.54253
 20
2.59048
 10
0.54005
 20
2.59464
 10
0.53524
 20
2.60311
 10
0.52616
 20
2.62056
 10
0.51774
 20
2.63862
 10
0.50994
 20
2.65723
 10
0.50273
 20
2.67634
 10
0.49608
 20
2.69592
 10
0.55153
 20
2.74512
 10
0.57018
 20
2.73619
 10
0.5883
 20
2.72675
 10
0.60585
 20
2.71679
 10
0.62277
 20
2.70628
 10
0.63902
 20
2.69519
 10
0.64686
 20
2.6894
 10
0.6507
 20
2.68644
 10
0.65448
 20
2.68344
 10
0.71862
 20
2.73191
 10
0.71676
 20
2.73637
 10
0.71496
 20
2.74087
 10
0.71154
 20
2.74999
 10
0.7053
 20
2.76865
 10
0.69981
 20
2.7878
 10
0.69502
 20
2.8074
 10
0.69088
 20
2.8274
 10
0.68737
 20
2.84778
 10
0.74985
 20
2.8877
 10
0.76687
 20
2.87596
 10
0.78328
 20
2.8638
 10
0.79906
 20
2.85122
 10
0.81413
 20
2.8382
 10
0.82844
 20
2.8247
 10
0.83528
 20
2.81776
 10
0.83861
 20
2.81424
 10
0.84188
 20
2.81068
 10
0.9128
 20
2.84852
 10
0.91167
 20
2.85321
 10
0.9106
 20
2.85794
 10
0.90864
 20
2.86748
 10
0.90539
 20
2.88689
 10
0.90297
 20
2.90666
 10
0.9013
 20
2.92677
 10
0.90035
 20
2.94717
 10
0.90007
 20
2.96785
 10
0.96802
 20
2.99751
 10
0.98299
 20
2.98325
 10
0.99731
 20
2.96867
 10
1.01092
 20
2.95378
 10
1.02377
 20
2.93855
 10
1.03579
 20
2.92298
 10
1.04146
 20
2.91506
 10
1.0442
 20
2.91106
 10
1.04687
 20
2.90703
 10
1.12284
 20
2.93331
 10
1.12245
 20
2.93813
 10
1.12213
 20
2.94296
 10
1.12169
 20
2.9527
 10
1.12153
 20
2.97237
 10
1.12223
 20
2.99228
 10
1.12372
 20
3.0124
 10
1.12597
 20
3.0327
 10
1.12893
 20
3.05317
 10
1.20068
 20
3.07183
 10
1.21324
 20
3.0554
 10
1.2251
 20
3.03877
 10
1.23621
 20
3.02193
 10
1.24653
 20
3.00488
 10
1.25596
 20
2.98762
 10
1.26032
 20
2.97891
 10
1.2624
 20
2.97453
 10
1.26441
 20
2.97013
 10
1.34356
 20
2.9842
 10
1.34393
 20
2.98902
 10
1.34437
 20
2.99385
 10
1.34546
 20
3.00353
 10
1.34837
 20
3.02298
 10
1.35217
 20
3.04254
 10
1.3568
 20
3.06218
 10
1.3622
 20
3.08188
 10
1.36833
 20
3.10163
 10
1.44211
 20
3.10884
 10
1.45195
 20
3.09065
 10
1.46105
 20
3.07236
 10
1.46939
 20
3.05399
 10
1.47691
 20
3.03554
 10
1.48354
 20
3.01702
 10
1.48648
 20
3.00773
 10
1.48784
 20
3.00308
 10
1.48914
 20
2.99843
 10
1.56952
 20
2.99994
 10
1.57064
 20
3.00464
 10
1.57183
 20
3.00934
 10
1.57442
 20
3.01873
 10
1.58033
 20
3.03749
 10
1.58715
 20
3.05621
 10
1.5948
 20
3.07488
 10
1.60321
 20
3.0935
 10
1.61235
 20
3.11205
 10
1.68636
 20
3.10763
 10
1.69322
 20
3.08812
 10
1.69936
 20
3.06864
 10
1.70472
 20
3.04919
 10
1.70926
 20
3.02979
 10
1.71291
 20
3.01046
 10
1.71436
 20
3.00082
 10
1.71498
 20
2.99602
 10
1.71553
 20
2.99122
 10
1.79516
 20
2.98014
 10
1.797
 20
2.98461
 10
1.79891
 20
2.98906
 10
1.80294
 20
2.99793
 10
1.81172
 20
3.01553
 10
1.82138
 20
3.03296
 10
1.83185
 20
3.0502
 10
1.84307
 20
3.06727
 10
1.855
 20
3.08416
 10
1.9274
 20
3.06822
 10
1.93113
 20
3.04788
 10
1.93415
 20
3.02768
 10
1.9364
 20
3.00763
 10
1.93785
 20
2.98776
 10
1.93843
 20
2.96809
 10
1.93835
 20
2.95835
 10
1.93822
 20
2.95351
 10
1.93801
 20
2.94868
 10
2.01492
 20
2.92528
 10
2.01744
 20
2.92941
 10
2.02002
 20
2.93351
 10
2.02539
 20
2.94164
 10
2.03681
 20
2.95765
 10
2.04908
 20
2.97335
 10
2.06212
 20
2.98874
 10
2.07587
 20
3.00385
 10
2.0903
 20
3.01867
 10
2.15932
 20
2.99159
 10
2.15982
 20
2.97092
 10
2.15964
 20
2.95049
 10
2.15873
 20
2.93033
 10
2.15705
 20
2.91048
 10
2.15454
 20
2.89097
 10
2.15294
 20
2.88136
 10
2.15205
 20
2.8766
 10
2.15109
 20
2.87186
 10
2.2234
 20
2.83672
 10
2.22653
 20
2.8404
 10
2.22972
 20
2.84405
 10
2.23629
 20
2.85124
 10
2.25008
 20
2.86527
 10
2.26466
 20
2.87885
 10
2.27995
 20
2.89202
 10
2.29589
 20
2.90479
 10
2.31246
 20
2.91716
 10
2.37639
 20
2.87962
 10
2.37365
 20
2.85913
 10
2.37027
 20
2.83898
 10
2.36622
 20
2.81922
 10
2.36146
 20
2.79987
 10
2.35593
 20
2.78099
 10
2.35285
 20
2.77175
 10
2.35122
 20
2.76718
 10
2.34954
 20
2.76266
 10
2.41545
 20
2.71664
 10
2.41912
 20
2.71978
 10
2.42285
 20
2.72288
 10
2.43046
 20
2.72896
 10
2.44628
 20
2.74066
 10
2.4628
 20
2.75179
 10
2.47996
 20
2.76241
 10
2.4977
 20
2.77252
 10
2.516
 20
2.78216
 10
2.57327
 20
2.73508
 10
2.56737
 20
2.71526
 10
2.56088
 20
2.69589
 10
2.55378
 20
2.677
 10
2.54606
 20
2.65864
 10
2.53764
 20
2.64086
 10
2.53315
 20
2.63222
 10
2.53083
 20
2.62796
 10
2.52845
 20
2.62375
 10
2.58636
 20
2.56799
 10
2.59048
 20
2.57052
 10
2.59464
 20
2.573
 10
2.60311
 20
2.57781
 10
2.62056
 20
2.58689
 10
2.63862
 20
2.59531
 10
2.65723
 20
2.60311
 10
2.67634
 20
2.61032
 10
2.69592
 20
2.61697
 10
2.74512
 20
2.56152
 10
2.73619
 20
2.54287
 10
2.72675
 20
2.52475
 10
2.71679
 20
2.5072
 10
2.70628
 20
2.49028
 10
2.69519
 20
2.47403
 10
2.6894
 20
2.46619
 10
2.68644
 20
2.46235
 10
2.68344
 20
2.45857
 10
2.73191
 20
2.39443
 10
2.73637
 20
2.39629
 10
2.74087
 20
2.39809
 10
2.74999
 20
2.40152
 10
2.76865
 20
2.40775
 10
2.7878
 20
2.41324
 10
2.8074
 20
2.41803
 10
2.8274
 20
2.42217
 10
2.84778
 20
2.42568
 10
2.8877
 20
2.3632
 10
2.87596
 20
2.34618
 10
2.8638
 20
2.32977
 10
2.85122
 20
2.31399
 10
2.8382
 20
2.29892
 10
2.8247
 20
2.28461
 10
2.81776
 20
2.27777
 10
2.81424
 20
2.27444
 10
2.81068
 20
2.27118
 10
2.84852
 20
2.20025
 10
2.85321
 20
2.20138
 10
2.85794
 20
2.20245
 10
2.86748
 20
2.20441
 10
2.88689
 20
2.20766
 10
2.90666
 20
2.21008
 10
2.92677
 20
2.21175
 10
2.94717
 20
2.2127
 10
2.96785
 20
2.21298
 10
2.99751
 20
2.14503
 10
2.98325
 20
2.13006
 10
2.96867
 20
2.11574
 10
2.95378
 20
2.10213
 10
2.93855
 20
2.08928
 10
2.92298
 20
2.07726
 10
2.91506
 20
2.07159
 10
2.91106
 20
2.06886
 10
2.90703
 20
2.06618
 10
2.93331
 20
1.99021
 10
2.93813
 20
1.9906
 10
2.94296
 20
1.99092
 10
2.9527
 20
1.99136
 10
2.97237
 20
1.99152
 10
2.99228
 20
1.99082
 10
3.0124
 20
1.98933
 10
3.0327
 20
1.98708
 10
3.05317
 20
1.98412
 10
3.07183
 20
1.91237
 10
3.0554
 20
1.89981
 10
3.03877
 20
1.88795
 10
3.02193
 20
1.87684
 10
3.00488
 20
1.86652
 10
2.98762
 20
1.85709
 10
2.97891
 20
1.85273
 10
2.97453
 20
1.85065
 10
2.97013
 20
1.84864
 10
2.9842
 20
1.76949
 10
2.98902
 20
1.76912
 10
2.99385
 20
1.76868
 10
3.00353
 20
1.76759
 10
3.02298
 20
1.76468
 10
3.04254
 20
1.76088
 10
3.06218
 20
1.75625
 10
3.08188
 20
1.75085
 10
3.10163
 20
1.74472
 10
3.10884
 20
1.67094
 10
3.09065
 20
1.6611
 10
3.07236
 20
1.652
 10
3.05399
 20
1.64366
 10
3.03554
 20
1.63614
 10
3.01702
 20
1.62951
 10
3.00773
 20
1.62657
 10
3.00308
 20
1.62521
 10
2.99843
 20
1.62391
 0
CIRCLE
 8
profile
 10
1.55653
 20
1.55653
 40
0.125
 0
LWPOLYLINE
 8
profile
 90
450
 70
1
 10
3.11632
 20
1.51098
 10
3.1137
 20
1.5163
 10
3.11157
 20
1.51821
 10
3.10952
 20
1.51952
 10
3.10751
 20
1.52051
 10
3.10553
 20
1.52128
 10
3.10357
 20
1.52188
 10
3.09969
 20
1.52272
 10
3.09586
 20
1.52318
 10
3.09206
 20
1.52335
 10
3.08452
 20
1.52301
 10
3.07699
 20
1.52255
 10
3.06934
 20
1.52339
 10
3.06164
 20
1.52494
 10
3.05391
 20
1.52705
 10
3.04615
 20
1.52967
 10
3.0384
 20
1.53275
 10
3.03066
 20
1.53626
 10
3.02294
 20
1.54019
 10
3.01525
 20
1.54452
 10
3.0076
 20
1.54924
 10
3.00001
 20
1.55435
 10
3.00523
 20
1.62351
 10
3.0135
 20
1.62741
 10
3.02177
 20
1.63093
 10
3.03003
 20
1.63405
 10
3.03825
 20
1.63678
 10
3.04643
 20
1.63909
 10
3.05456
 20
1.64097
 10
3.06262
 20
1.64239
 10
3.07058
 20
1.64332
 10
3.07843
 20
1.6437
 10
3.08612
 20
1.64338
 10
3.09349
 20
1.64179
 10
3.10089
 20
1.64032
 10
3.10468
 20
1.63992
 10
3.10854
 20
1.6398
 10
3.1125
 20
1.64005
 10
3.11452
 20
1.64035
 10
3.1166
 20
1.64081
 10
3.11873
 20
1.64148
 10
3.12095
 20
1.64247
 10
3.12335
 20
1.64404
 10
3.12674
 20
1.6489
 10
3.13691
 20
1.67748
 10
3.14975
 20
1.70495
 10
3.15076
 20
1.71079
 10
3.15015
 20
1.71359
 10
3.14927
 20
1.71586
 10
3.14822
 20
1.71784
 10
3.14707
 20
1.71962
 10
3.14584
 20
1.72126
 10
3.1432
 20
1.72422
 10
3.14037
 20
1.72685
 10
3.13739
 20
1.72922
 10
3.13109
 20
1.73337
 10
3.12473
 20
1.73743
 10
3.11904
 20
1.7426
 10
3.11371
 20
1.74838
 10
3.1087
 20
1.75464
 10
3.10397
 20
1.76131
 10
3.09951
 20
1.76836
 10
3.09531
 20
1.77576
 10
3.09137
 20
1.78347
 10
3.08769
 20
1.7915
 10
3.08428
 20
1.79981
 10
3.08114
 20
1.8084
 10
3.12602
 20
1.86128
 10
3.135
 20
1.85958
 10
3.14376
 20
1.85756
 10
3.15228
 20
1.85524
 10
3.16053
 20
1.85261
 10
3.16851
 20
1.84967
 10
3.17619
 20
1.84641
 10
3.18354
 20
1.84283
 10
3.19053
 20
1.8389
 10
3.1971
 20
1.83459
 10
3.20314
 20
1.82981
 10
3.20817
 20
1.8242
 10
3.21329
 20
1.81866
 10
3.21612
 20
1.81611
 10
3.21917
 20
1.81374
 10
3.22252
 20
1.81161
 10
3.22434
 20
1.81067
 10
3.22628
 20
1.80982
 10
3.2284
 20
1.80911
 10
3.23079
 20
1.8086
 10
3.23365
 20
1.80847
 10
3.23925
 20
1.81041
 10
3.26427
 20
1.82755
 10
3.29081
 20
1.84223
 10
3.29505
 20
1.84636
 10
3.29621
 20
1.84898
 10
3.29683
 20
1.85134
 10
3.29715
 20
1.85355
 10
3.29726
 20
1.85567
 10
3.29723
 20
1.85772
 10
3.29683
 20
1.86167
 10
3.29608
 20
1.86546
 10
3.29507
 20
1.86913
 10
3.29242
 20
1.87619
 10
3.28965
 20
1.88321
 10
3.28809
 20
1.89074
 10
3.28718
 20
1.89855
 10
3.2868
 20
1.90656
 10
3.2869
 20
1.91474
 10
3.28743
 20
1.92306
 10
3.28838
 20
1.93151
 10
3.28973
 20
1.94007
 10
3.29147
 20
1.94872
 10
3.2936
 20
1.95745
 10
3.29611
 20
1.96625
 10
3.36349
 20
1.98265
 10
3.36976
 20
1.97599
 10
3.37566
 20
1.96921
 10
3.38119
 20
1.96233
 10
3.38632
 20
1.95535
 10
3.39105
 20
1.94828
 10
3.39535
 20
1.94113
 10
3.39919
 20
1.93391
 10
3.40254
 20
1.92662
 10
3.40532
 20
1.91927
 10
3.40739
 20
1.91186
 10
3.40816
 20
1.90436
 10
3.40905
 20
1.89687
 10
3.40984
 20
1.89314
 10
3.41092
 20
1.88944
 10
3.41237
 20
1.88575
 10
3.41329
 20
1.88391
 10
3.41436
 20
1.88208
 10
3.41566
 20
1.88026
 10
3.41729
 20
1.87845
 10
3.41953
 20
1.87666
 10
3.4252
 20
1.87494
 10
3.45551
 20
1.8741
 10
3.48561
 20
1.87037
 10
3.49148
 20
1.87122
 10
3.49396
 20
1.87266
 10
3.49584
 20
1.87421
 10
3.4974
 20
1.87581
 10
3.49874
 20
1.87746
 10
3.49992
 20
1.87914
 10
3.50191
 20
1.88256
 10
3.50354
 20
1.88607
 10
3.50488
 20
1.88963
 10
3.50688
 20
1.89691
 10
3.50877
 20
1.90421
 10
3.51193
 20
1.91122
 10
3.51578
 20
1.91807
 10
3.52019
 20
1.92477
 10
3.52507
 20
1.93133
 10
3.53039
 20
1.93775
 10
3.53613
 20
1.94403
 10
3.54225
 20
1.95016
 10
3.54875
 20
1.95614
 10
3.5556
 20
1.96195
 10
3.5628
 20
1.9676
 10
3.62696
 20
1.94126
 10
3.62811
 20
1.93218
 10
3.62891
 20
1.92323
 10
3.62933
 20
1.91442
 10
3.62938
 20
1.90575
 10
3.62905
 20
1.89725
 10
3.62832
 20
1.88894
 10
3.62719
 20
1.88084
 10
3.62561
 20
1.87298
 10
3.62354
 20
1.8654
 10
3.62086
 20
1.85819
 10
3.61708
 20
1.85167
 10
3.61339
 20
1.84508
 10
3.61184
 20
1.8416
 10
3.61053
 20
1.83797
 10
3.60954
 20
1.83413
 10
3.6092
 20
1.83211
 10
3.609
 20
1.83
 10
3.60898
 20
1.82776
 10
3.60924
 20
1.82534
 10
3.60999
 20
1.82257
 10
3.61356
 20
1.81785
 10
3.6376
 20
1.79934
 10
3.65976
 20
1.77864
 10
3.66501
 20
1.77588
 10
3.66786
 20
1.77559
 10
3.67029
 20
1.77573
 10
3.67249
 20
1.77611
 10
3.67454
 20
1.77666
 10
3.67648
 20
1.77732
 10
3.68011
 20
1.77892
 10
3.68348
 20
1.7808
 10
3.68666
 20
1.7829
 10
3.69256
 20
1.78761
 10
3.69838
 20
1.7924
 10
3.70506
 20
1.79622
 10
3.7122
 20
1.79949
 10
3.7197
 20
1.80233
 10
3.72751
 20
1.80477
 10
3.73559
 20
1.80683
 10
3.74392
 20
1.80854
 10
3.75248
 20
1.8099
 10
3.76125
 20
1.81092
 10
3.77021
 20
1.81159
 10
3.77935
 20
1.81193
 10
3.81578
 20
1.75291
 10
3.81138
 20
1.74489
 10
3.80675
 20
1.73718
 10
3.80191
 20
1.7298
 10
3.79686
 20
1.72276
 10
3.7916
 20
1.71608
 10
3.78613
 20
1.70978
 10
3.78045
 20
1.7039
 10
3.77455
 20
1.69846
 10
3.76842
 20
1.69355
 10
3.76202
 20
1.68928
 10
3.75512
 20
1.68623
 10
3.74827
 20
1.68307
 10
3.74497
 20
1.68117
 10
3.74177
 20
1.679
 10
3.73872
 20
1.67648
 10
3.73725
 20
1.67504
 10
3.73585
 20
1.67345
 10
3.73452
 20
1.67165
 10
3.7333
 20
1.66954
 10
3.73228
 20
1.66686
 10
3.7324
 20
1.66094
 10
3.74097
 20
1.63184
 10
3.74673
 20
1.60207
 10
3.74935
 20
1.59675
 10
3.75148
 20
1.59484
 10
3.75353
 20
1.59353
 10
3.75554
 20
1.59254
 10
3.75752
 20
1.59177
 10
3.75948
 20
1.59117
 10
3.76336
 20
1.59033
 10
3.76719
 20
1.58987
 10
3.77099
 20
1.5897
 10
3.77853
 20
1.59004
 10
3.78606
 20
1.5905
 10
3.79371
 20
1.58966
 10
3.80141
 20
1.58811
 10
3.80915
 20
1.586
 10
3.8169
 20
1.58338
 10
3.82465
 20
1.5803
 10
3.83239
 20
1.57679
 10
3.84011
 20
1.57286
 10
3.8478
 20
1.56853
 10
3.85545
 20
1.56381
 10
3.86304
 20
1.5587
 10
3.85782
 20
1.48954
 10
3.84955
 20
1.48564
 10
3.84128
 20
1.48212
 10
3.83302
 20
1.479
 10
3.8248
 20
1.47627
 10
3.81662
 20
1.47396
 10
3.80849
 20
1.47208
 10
3.80043
 20
1.47066
 10
3.79247
 20
1.46973
 10
3.78462
 20
1.46935
 10
3.77693
 20
1.46967
 10
3.76956
 20
1.47126
 10
3.76216
 20
1.47273
 10
3.75837
 20
1.47313
 10
3.75451
 20
1.47325
 10
3.75055
 20
1.473
 10
3.74853
 20
1.4727
 10
3.74645
 20
1.47224
 10
3.74432
 20
1.47157
 10
3.7421
 20
1.47058
 10
3.7397
 20
1.46901
 10
3.73631
 20
1.46415
 10
3.72614
 20
1.43557
 10
3.7133
 20
1.4081
 10
3.71229
 20
1.40226
 10
3.7129
 20
1.39946
 10
3.71378
 20
1.39719
 10
3.71483
 20
1.39521
 10
3.71598
 20
1.39343
 10
3.71721
 20
1.39179
 10
3.71985
 20
1.38883
 10
3.72268
 20
1.3862
 10
3.72566
 20
1.38383
 10
3.73196
 20
1.37968
 10
3.73832
 20
1.37562
 10
3.74401
 20
1.37045
 10
3.74934
 20
1.36467
 10
3.75435
 20
1.35841
 10
3.75908
 20
1.35174
 10
3.76354
 20
1.34469
 10
3.76774
 20
1.33729
 10
3.77168
 20
1.32958
 10
3.77536
 20
1.32155
 10
3.77877
 20
1.31324
 10
3.78191
 20
1.30465
 10
3.73704
 20
1.25177
 10
3.72805
 20
1.25347
 10
3.71929
 20
1.25549
 10
3.71077
 20
1.25781
 10
3.70252
 20
1.26044
 10
3.69454
 20
1.26338
 10
3.68686
 20
1.26664
 10
3.67951
 20
1.27022
 10
3.67252
 20
1.27415
 10
3.66595
 20
1.27846
 10
3.65991
 20
1.28324
 10
3.65488
 20
1.28885
 10
3.64976
 20
1.29439
 10
3.64693
 20
1.29694
 10
3.64388
 20
1.29931
 10
3.64053
 20
1.30144
 10
3.63872
 20
1.30238
 10
3.63677
 20
1.30323
 10
3.63465
 20
1.30394
 10
3.63227
 20
1.30445
 10
3.6294
 20
1.30458
 10
3.6238
 20
1.30264
 10
3.59878
 20
1.2855
 10
3.57224
 20
1.27082
 10
3.568
 20
1.26669
 10
3.56684
 20
1.26407
 10
3.56622
 20
1.26171
 10
3.5659
 20
1.2595
 10
3.56579
 20
1.25738
 10
3.56582
 20
1.25533
 10
3.56622
 20
1.25138
 10
3.56697
 20
1.24759
 10
3.56798
 20
1.24392
 10
3.57063
 20
1.23686
 10
3.5734
 20
1.22984
 10
3.57496
 20
1.22231
 10
3.57587
 20
1.2145
 10
3.57625
 20
1.20649
 10
3.57615
 20
1.19831
 10
3.57562
 20
1.18999
 10
3.57467
 20
1.18154
 10
3.57332
 20
1.17298
 10
3.57158
 20
1.16433
 10
3.56945
 20
1.1556
 10
3.56694
 20
1.1468
 10
3.49956
 20
1.1304
 10
3.49329
 20
1.13706
 10
3.48739
 20
1.14384
 10
3.48186
 20
1.15072
 10
3.47673
 20
1.1577
 10
3.472
 20
1.16477
 10
3.4677
 20
1.17192
 10
3.46386
 20
1.17914
 10
3.46051
 20
1.18643
 10
3.45773
 20
1.19378
 10
3.45566
 20
1.20119
 10
3.45489
 20
1.20869
 10
3.454
 20
1.21618
 10
3.45321
 20
1.21991
 10
3.45213
 20
1.22361
 10
3.45068
 20
1.2273
 10
3.44976
 20
1.22914
 10
3.44869
 20
1.23097
 10
3.44739
 20
1.23279
 10
3.44576
 20
1.2346
 10
3.44352
 20
1.23639
 10
3.43785
 20
1.23811
 10
3.40754
 20
1.23896
 10
3.37744
 20
1.24268
 10
3.37157
 20
1.24183
 10
3.36909
 20
1.24039
 10
3.36721
 20
1.23884
 10
3.36565
 20
1.23724
 10
3.36431
 20
1.23559
 10
3.36313
 20
1.23392
 10
3.36114
 20
1.23049
 10
3.35951
 20
1.22698
 10
3.35817
 20
1.22342
 10
3.35617
 20
1.21614
 10
3.35428
 20
1.20884
 10
3.35112
 20
1.20183
 10
3.34727
 20
1.19498
 10
3.34286
 20
1.18828
 10
3.33798
 20
1.18172
 10
3.33266
 20
1.1753
 10
3.32692
 20
1.16902
 10
3.3208
 20
1.16289
 10
3.3143
 20
1.15691
 10
3.30745
 20
1.1511
 10
3.30025
 20
1.14545
 10
3.23609
 20
1.17179
 10
3.23494
 20
1.18087
 10
3.23414
 20
1.18982
 10
3.23372
 20
1.19863
 10
3.23367
 20
1.2073
 10
3.234
 20
1.2158
 10
3.23473
 20
1.22411
 10
3.23586
 20
1.23221
 10
3.23744
 20
1.24007
 10
3.23951
 20
1.24765
 10
3.24219
 20
1.25486
 10
3.24597
 20
1.26138
 10
3.24966
 20
1.26797
 10
3.25121
 20
1.27145
 10
3.25252
 20
1.27508
 10
3.25351
 20
1.27892
 10
3.25385
 20
1.28094
 10
3.25405
 20
1.28305
 10
3.25407
 20
1.28529
 10
3.25382
 20
1.28771
 10
3.25306
 20
1.29048
 10
3.24949
 20
1.2952
 10
3.22545
 20
1.31371
 10
3.20329
 20
1.33441
 10
3.19805
 20
1.33717
 10
3.19519
 20
1.33746
 10
3.19276
 20
1.33732
 10
3.19056
 20
1.33694
 10
3.18851
 20
1.33639
 10
3.18657
 20
1.33573
 10
3.18294
 20
1.33413
 10
3.17957
 20
1.33225
 10
3.17639
 20
1.33015
 10
3.17049
 20
1.32544
 10
3.16467
 20
1.32065
 10
3.15799
 20
1.31683
 10
3.15085
 20
1.31356
 10
3.14335
 20
1.31072
 10
3.13554
 20
1.30828
 10
3.12746
 20
1.30622
 10
3.11913
 20
1.30451
 10
3.11057
 20
1.30315
 10
3.1018
 20
1.30213
 10
3.09284
 20
1.30146
 10
3.0837
 20
1.30112
 10
3.04728
 20
1.36014
 10
3.05167
 20
1.36816
 10
3.0563
 20
1.37587
 10
3.06114
 20
1.38325
 10
3.06619
 20
1.39029
 10
3.07145
 20
1.39697
 10
3.07692
 20
1.40327
 10
3.0826
 20
1.40915
 10
3.0885
 20
1.41459
 10
3.09463
 20
1.4195
 10
3.10104
 20
1.42377
 10
3.10793
 20
1.42682
 10
3.11479
 20
1.42998
 10
3.11808
 20
1.43188
 10
3.12128
 20
1.43405
 10
3.12433
 20
1.43657
 10
3.1258
 20
1.43801
 10
3.1272
 20
1.4396
 10
3.12853
 20
1.4414
 10
3.12975
 20
1.44351
 10
3.13077
 20
1.44619
 10
3.13065
 20
1.45211
 10
3.12208
 20
1.48121
 0
CIRCLE
 8
profile
 10
3.43153
 20
1.55653
 40
0.1565
  0
ENDSEC
  0
EOF
